<?xml version="1.0" encoding="UTF-8" standalone="no"?>
<!-- Created with Inkscape (http://www.inkscape.org/) -->

<svg
   width="183.62579mm"
   height="107.38393mm"
   viewBox="0 0 183.62579 107.38393"
   version="1.1"
   id="svg5"
   inkscape:version="1.2.2 (b0a8486541, 2022-12-01)"
   sodipodi:docname="mesh_1.svg"
   inkscape:export-filename="mesh_1.png"
   inkscape:export-xdpi="200"
   inkscape:export-ydpi="200"
   xmlns:inkscape="http://www.inkscape.org/namespaces/inkscape"
   xmlns:sodipodi="http://sodipodi.sourceforge.net/DTD/sodipodi-0.dtd"
   xmlns="http://www.w3.org/2000/svg"
   xmlns:svg="http://www.w3.org/2000/svg">
  <sodipodi:namedview
     id="namedview7"
     pagecolor="#ffffff"
     bordercolor="#000000"
     borderopacity="0.25"
     inkscape:showpageshadow="2"
     inkscape:pageopacity="0.0"
     inkscape:pagecheckerboard="0"
     inkscape:deskcolor="#d1d1d1"
     inkscape:document-units="mm"
     showgrid="false"
     inkscape:zoom="1.3434876"
     inkscape:cx="131.00233"
     inkscape:cy="186.08285"
     inkscape:window-width="1920"
     inkscape:window-height="1010"
     inkscape:window-x="0"
     inkscape:window-y="38"
     inkscape:window-maximized="1"
     inkscape:current-layer="layer1" />
  <defs
     id="defs2" />
  <g
     inkscape:label="Layer 1"
     inkscape:groupmode="layer"
     id="layer1"
     transform="translate(-11.634246,-54.696897)">
    <path
       style="fill:#fd44ff;stroke:#000000;stroke-width:1.065"
       d="m 49.254939,59.432393 c -0.545381,3.363161 -0.355368,1.01424 0.244559,5.933517 0.157732,1.293346 0.289428,2.589866 0.411882,3.88703 0.130697,1.384451 0.24552,2.77046 0.347525,4.157322 0.320789,4.361378 0.202489,3.852513 0.501973,7.06616 0.373073,4.003273 -0.0077,-0.509645 0.231688,2.458355 0.02225,0.275823 -0.167161,0.763709 0.102965,0.823741 0.09519,0.02114 1.119116,-1.498547 1.943568,-1.660353 0.72689,-0.142656 1.479037,-0.09954 2.213867,-0.193067 3.000359,-0.381854 4.320463,-0.831421 7.671303,-0.656418 1.366718,0.07138 8.241392,2.332403 9.061391,0.926709 0.317204,-0.543767 0.105349,-2.105033 0.128712,-2.715774 0.145717,-3.809145 -0.515006,-7.431386 -1.119793,-11.171999 -0.378804,-2.342901 -0.818111,-4.690134 -1.145554,-7.040414 -0.23886,-1.714447 0.01897,-4.373015 -1.428712,-5.650357 -0.762096,-0.672423 -2.286471,-0.214993 -3.192087,-0.205936 -0.761955,0.0076 -1.545924,-0.157628 -2.303957,-0.102965 -2.451291,0.176768 -4.691507,1.178949 -7.066354,1.750449 -3.005821,0.723341 -5.167707,-0.449943 -7.722783,1.801937"
       id="path799" />
    <path
       style="fill:#fd44ff;stroke:#000000;stroke-width:1.065"
       d="m 130.48574,57.553232 c 0.98081,6.135375 -0.1625,12.381283 -1.04256,18.456963 -0.35716,2.465742 -0.35887,4.902859 -0.56634,7.375067 -0.0333,0.396306 -0.083,0.911461 -0.19307,1.312839 -0.0378,0.137726 -0.33267,0.259403 -0.23169,0.360386 1.46591,1.465874 8.4977,0.278061 10.24556,0.115837 1.66619,-0.154643 3.35151,-0.01995 5.01982,0 1.74568,0.02088 3.55213,-0.159194 5.2901,0 0.61615,0.05644 3.51747,1.380929 3.65544,1.261356 0.0528,-0.04573 0.20175,-2.899738 0.2317,-3.153388 0.48888,-4.140957 0.93008,-8.213276 0.68216,-12.394743 -0.18885,-3.185414 -0.32266,-3.377223 -0.42474,-6.100836 -0.0327,-0.873533 0.13452,-6.630133 -0.63069,-7.336443 -0.0696,-0.06427 -3.23828,-0.498306 -3.3208,-0.501973 -2.92457,-0.129979 -6.00866,-0.499592 -8.90694,-0.01286 -2.43845,0.409504 -4.79728,0.906275 -7.25943,1.197002 -0.44771,0.05286 -0.899,0.29297 -1.33861,0.193061 -0.46655,-0.106035 -0.8066,-0.51484 -1.20991,-0.772258 z"
       id="path801" />
    <path
       style="fill:#fd44ff;stroke:#000000;stroke-width:1.065"
       d="m 49.705439,137.30173 c -0.07707,4.18661 -0.116422,-0.13416 0.489112,5.53452 0.109288,1.02311 0.08432,3.60243 0.03861,4.59493 -0.08846,1.92077 -0.31909,4.5748 -0.476237,6.52558 -0.01005,0.12484 -0.430289,4.40039 -0.244562,4.36326 2.141325,-0.42815 3.720517,2.71587 6.229717,3.05042 2.289696,0.30528 4.466455,-0.21202 6.718827,-0.51485 1.89979,-0.25542 3.956341,-0.37375 5.766342,-1.05541 0.602112,-0.22676 1.256284,-0.67068 1.827718,-0.93958 1.081217,-0.5088 1.668251,0.0528 2.651495,0.45048 0.61304,0.24796 1.054497,0.13349 1.673273,0.50197 0.471178,0.28058 1.026446,1.01812 1.608907,0.37326 0.759982,-0.8414 0.123325,-2.87004 0.03862,-3.62962 -0.287906,-2.58175 -0.476573,-5.21564 -0.347525,-7.81267 0.12958,-2.60773 0.849953,-5.16876 1.209897,-7.74833 0.133276,-0.95513 0.708726,-3.24733 0.141584,-4.18306 -0.370295,-0.61095 -3.850669,-0.27462 -4.607925,-0.33464 -2.127403,-0.16863 -4.231447,-0.375 -6.371302,-0.3089 -2.11941,0.0654 -4.202445,0.42452 -6.319805,0.51483 -1.803429,0.0769 -3.592163,0.10445 -5.393082,0.23169 -2.032963,0.14362 -2.597507,-0.2732 -4.633661,0.38612 z"
       id="path803" />
    <path
       style="fill:#fd44ff;stroke:#000000;stroke-width:1.065"
       d="m 134.34714,135.35822 c -0.55888,0.85354 -0.76285,0.83818 -0.79802,1.67323 -0.0564,1.33969 0.48611,3.07281 0.6693,4.28602 0.28019,1.85558 0.47671,3.84383 0.50199,5.7147 0.0538,3.98061 -0.0161,4.135 -0.43763,7.68397 -0.14991,1.262 -0.48911,2.64666 -0.48911,3.92564 0,0.31575 0.44558,-0.44999 0.69505,-0.64354 0.48463,-0.376 1.13854,-0.29073 1.69902,-0.19307 1.31003,0.22826 2.59122,0.61697 3.9,0.86236 1.69179,0.3172 3.39563,0.52205 5.09704,0.77226 1.57354,0.2314 3.11027,0.54892 4.60793,1.09403 1.00481,0.36573 1.97224,0.91199 3.06336,1.00394 2.08161,0.17541 2.84652,-1.75834 4.59507,-2.27817 0.12288,-0.0365 2.04081,-0.17362 2.22673,-0.16732 0.25671,0.009 0.7383,0.48232 0.96534,0.38613 0.51666,-0.21892 0.4696,-0.42638 0.46337,-0.84948 -0.0319,-2.16753 -0.74845,-4.42102 -1.06832,-6.55132 -0.34492,-2.2971 -0.40219,-3.38475 -0.4891,-5.88204 -0.0669,-1.92118 0.008,-3.86629 0.19307,-5.77906 0.10064,-1.03991 0.63185,-3.10692 0.36038,-4.1187 -0.16838,-0.62759 -1.13498,-0.94941 -1.67327,-1.20988 -0.48518,-0.23477 -0.83354,-0.66956 -1.3,-0.9267 -1.77732,-0.97977 -4.45591,-0.76252 -6.34554,-0.47622 -2.42824,0.36789 -4.74042,0.78087 -7.20794,0.56631 -2.0356,-0.177 -3.99886,-0.22958 -6.03663,-0.24455 -0.89911,-0.007 -2.13823,-0.3378 -3.01189,-0.0386 -0.55632,0.19052 -0.19616,1.15346 -0.1802,1.39007 z"
       id="path805" />
    <path
       style="fill:none;stroke:#16ff00;stroke-width:1.065;stroke-opacity:1"
       d="m 57.286638,71.325168 c 0.336963,-0.779889 3.350959,-4.875057 3.217823,-5.096905 -0.09366,-0.156075 -0.111755,0.361863 -0.07723,0.540581 0.153506,0.794592 0.374364,1.249577 0.643569,2.097969 0.438756,1.382723 0.714526,2.750762 0.81089,4.195934"
       id="path1988" />
    <path
       style="fill:none;stroke:#16ff00;stroke-width:1.065;stroke-opacity:1"
       d="m 139.30259,70.565779 c -0.64506,-0.331922 2.83181,-5.03678 3.34654,-3.46229 0.84791,2.593597 -1.20364,5.782644 -2.87031,7.645352 -0.30566,0.341617 -0.58402,0.301327 -0.90098,0.527712 -0.40302,0.287856 0.98643,-0.09038 1.48021,-0.128709 0.87963,-0.06828 1.76861,-0.102971 2.65147,-0.102971"
       id="path1990" />
    <path
       style="fill:none;stroke:#16ff00;stroke-width:1.065;stroke-opacity:1"
       d="m 142.40457,144.26493 c 1.20389,-1.48595 1.78264,-1.90753 3.52675,-1.20988 0.005,0.002 0.71385,0.17949 0.75941,0.43762 0.1238,0.7014 -1.88187,1.62131 -1.6218,2.9217 0.19956,0.99786 3.76569,1.41132 3.73268,1.82768 -0.16855,2.12604 -3.08127,4.19596 -5.09704,3.82267"
       id="path1992" />
    <path
       style="fill:none;stroke:#16ff00;stroke-width:1.065;stroke-opacity:1"
       d="m 59.848019,145.50053 c -0.573103,0.95907 -0.902671,1.9731 -1.248508,3.02469 -0.02019,0.0614 -0.703987,2.15957 -0.52773,2.2138 0.569386,0.1752 1.283441,-0.0713 1.840606,-0.15446 0.813771,-0.12145 1.385125,-0.15645 2.213853,-0.27028 1.310717,-0.18003 3.170269,-1.00079 4.324768,-0.0772"
       id="path1994" />
    <path
       style="fill:none;stroke:#16ff00;stroke-width:1.065;stroke-opacity:1"
       d="m 63.374759,147.64998 c -1.171602,1.68546 -1.042578,3.81801 -1.042578,5.79194"
       id="path1996" />
    <path
       style="fill:none;stroke:#16ff00;stroke-width:1.065"
       d="m 62.347777,135.57286 c -0.135938,-1.02568 -0.179187,-1.12062 -0.193077,-2.16233 -0.01564,-1.17175 0.135628,-2.34088 0.141584,-3.51377 0.02424,-4.77077 -0.129429,-9.56869 -0.244549,-14.33826 -0.191411,-7.93034 -0.520571,-15.896537 -0.257424,-23.824146 0.08146,-2.453947 -0.225102,-4.884092 -0.205941,-7.336457 0.0061,-0.780317 -0.534054,-1.358201 -0.257434,-2.188059"
       id="path3858" />
    <path
       style="fill:none;stroke:#16ff00;stroke-width:1.065"
       d="m 59.60618,129.39479 c 0.364821,0.84186 0.929074,1.57344 1.28714,2.41975 0.561446,1.32701 0.903068,2.72779 1.42871,4.06722 -0.0043,-0.49768 -0.180968,-1.02458 -0.01287,-1.49303 0.119143,-0.33202 0.592623,-0.40825 0.798028,-0.69504 0.484632,-0.67664 0.772642,-1.47948 1.248506,-2.16232 0.905457,-1.29928 1.91743,-2.21006 3.024767,-3.26922"
       id="path3864" />
    <path
       style="fill:none;stroke:#16ff00;stroke-width:1.065"
       d="m 55.654697,91.515541 c 0.887225,-1.478656 1.745858,-3.014983 2.805941,-4.376124 1.291891,-1.658781 2.698363,-3.164554 3.668326,-5.045422 0.03861,0.583485 -0.04341,1.187794 0.115838,1.750454 0.04476,0.158137 2.89202,1.711161 3.217823,1.956383 1.409917,1.061202 2.458445,2.307146 3.629716,3.603873"
       id="path3866" />
    <path
       style="fill:none;stroke:#16ff00;stroke-width:1.065"
       d="m 70.971542,70.124002 c 0.699342,-0.02574 1.399763,-0.03068 2.098027,-0.07723 2.123133,-0.141541 4.224901,-0.395172 6.35843,-0.450484 4.845986,-0.125633 9.676532,0.128711 14.518827,0.128711 7.372444,0 14.753894,0.07567 22.125774,-0.03861 3.71228,-0.05755 7.43559,0.134554 11.12082,-0.128712"
       id="path3868" />
    <path
       style="fill:none;stroke:#16ff00;stroke-width:1.065"
       d="m 79.222058,64.370679 c -1.827385,0.91365 -3.534564,2.204045 -4.968325,3.655355 -0.533453,0.539982 -0.929698,1.22815 -1.544561,1.673225 -0.391014,0.28304 -0.832347,0.489095 -1.248518,0.733642 3.322235,-0.04422 4.539717,3.329986 7.195065,4.710777"
       id="path3874" />
    <path
       style="fill:none;stroke:#16ff00;stroke-width:1.065"
       d="m 121.27262,63.276644 c 1.85264,1.382323 3.16505,3.331985 4.59505,5.109778 0.25384,0.315573 0.58678,0.536517 0.82376,0.862353 0.24314,0.334303 0.82651,1.371467 1.37722,1.261356 0.0892,-0.01784 -0.18638,-0.07388 -0.27029,-0.03862 -0.51212,0.215236 -0.95648,0.577008 -1.41585,0.875227 -1.47218,0.955741 -2.90399,1.868593 -4.29902,2.934581"
       id="path3876" />
    <path
       style="fill:none;stroke:#16ff00;stroke-width:1.065"
       d="m 143.83602,88.233445 c -0.88964,-0.386776 -1.34113,-1.426921 -2.1109,-2.00787 -0.21459,-0.161946 -1.9117,-1.321691 -2.25248,-1.016807 -0.61249,0.547979 -0.73283,3.089466 -0.84951,3.80981 -0.0781,0.482155 -0.41184,1.814811 -0.56634,1.351452 -0.0742,-0.222668 0.18762,-0.436653 0.21882,-0.669293 0.0959,-0.716417 -0.0345,-0.709173 0.11585,-1.299964 0.0762,-0.299477 0.34762,-0.414525 0.47623,-0.682167 0.30392,-0.632455 0.41397,-1.242372 0.55346,-1.917774 0.0418,-0.202364 0.28812,-0.70915 0.30892,-0.875221 0.0127,-0.101475 0.0825,-0.654962 0.14157,-0.566322 0.71883,1.078175 0.19967,6.194536 0.57923,7.825544 0.30009,1.289558 0.73303,2.46198 0.95247,3.784066 1.22279,7.367191 1.61579,14.826191 2.08515,22.266771 0.2225,3.52717 0.66254,7.0353 0.9782,10.55418 0.12746,1.42086 0.23392,2.83618 0.30892,4.2603 -0.50198,-0.10297 -1.08522,-0.0163 -1.50593,-0.30891 -0.64947,-0.45163 -1.54306,-2.86634 -1.87922,-3.52664"
       id="path3878" />
    <path
       style="fill:none;stroke:#16ff00;stroke-width:1.065"
       d="m 144.93007,133.06302 c 1.28518,-1.30335 2.23393,-2.79966 2.96041,-4.46623"
       id="path3880" />
    <path
       style="fill:none;stroke:#16ff00;stroke-width:1.065"
       d="m 128.75084,153.3476 c 0.8428,-0.6807 1.72133,-1.29298 2.70296,-1.76333 0.55751,-0.26713 1.88921,-0.3709 2.05941,-1.11977 0.0732,-0.32198 -0.26342,-0.57279 -0.25742,-0.87522 0.004,-0.19398 0.1882,-0.35959 0.1802,-0.55345 -0.0142,-0.35349 -2.17999,-0.74338 -2.38118,-0.81088 -0.72167,-0.24225 -3.82216,-1.82099 -5.00694,-1.27422 -0.0542,0.0251 0.10853,0.0535 0.16733,0.0644 0.55965,0.10411 0.40819,0.0668 1.08118,0.25741 0.18266,0.0517 5.13679,1.17021 4.47923,2.04648 -0.21609,0.28797 -1.57989,0.18507 -1.85348,0.19307 -2.21331,0.0685 -4.39372,-0.0874 -6.60299,-0.19307 -3.66053,-0.17498 -7.31633,0.16425 -10.97922,0.0129 -11.89557,-0.49155 -23.827138,-1.72709 -35.730737,-0.83661 1.081568,-0.0715 1.26498,-1.13376 1.930698,-1.66035 1.358216,-1.07439 3.283353,-1.28136 4.749511,-2.13659 0.161075,-0.094 -0.356107,0.12098 -0.514858,0.21881 -0.623194,0.38405 -1.399472,0.89032 -2.007926,1.22274 -0.699203,0.38199 -2.145643,0.75551 -2.754459,1.36432 -0.188484,0.18848 -0.323984,0.42817 -0.437616,0.66929 -0.06528,0.13852 0.05518,0.40206 -0.0901,0.45049 -0.279754,0.0933 -0.984768,-0.4025 -0.875247,-0.12871 0.668703,1.6717 4.19743,1.56803 5.22575,2.94745 0.323009,0.4333 0.247047,1.14647 0.270296,1.63461"
       id="path3882" />
    <path
       style="fill:none;stroke:#16ff00;stroke-width:1.065"
       d="m 77.677497,136.44808 c 2.518328,-2.11983 4.613023,-4.68524 6.989122,-6.96319 1.936821,-1.85681 3.966588,-3.6175 5.895054,-5.48304 5.182124,-5.013 10.208607,-10.18901 15.394087,-15.2006 2.95826,-2.85907 6.17653,-5.5262 8.94555,-8.57206 2.6594,-2.925267 5.3386,-5.831535 8.03169,-8.726524 0.34617,-0.372115 4.30115,-3.893735 3.43665,-3.95138"
       id="path3886" />
    <path
       style="fill:none;stroke:#16ff00;stroke-width:1.065"
       d="m 127.6053,86.701799 c -1.49777,-0.637548 -2.45177,0.100724 -3.84853,0.540583 -0.76097,0.239639 -1.51599,0.498055 -2.27823,0.733647 -0.3412,0.105461 -0.67992,0.223883 -1.02969,0.296032 -1.10434,0.227796 -2.277,0.502468 -2.201,0.141579 0.0546,-0.25935 1.4831,-0.352703 1.64752,-0.373256 2.08615,-0.260763 3.94164,-1.064157 5.9723,-1.544518 0.40522,-0.09586 1.57806,-0.328425 1.73763,0.205933 0.15451,0.51743 -0.46911,0.994833 -0.52774,1.531646 -0.0276,0.252646 0.1977,0.468567 0.28318,0.707909 0.12914,0.361582 0.26655,0.72172 0.36038,1.094028 0.32453,1.287629 0.51507,2.47501 0.59209,3.784068"
       id="path3890" />
    <path
       style="fill:none;stroke:#16ff00;stroke-width:1.065"
       d="m 77.304236,137.24608 c 0.364686,-1.25277 0.718862,-2.50865 1.09406,-3.75832 0.646041,-2.15177 0.432213,-1.19638 0.849498,-2.80587 0.143108,-0.55198 0.2771,-1.10629 0.411879,-1.66036 0.03938,-0.16188 0.179843,-0.6369 0.102979,-0.48909 -0.126635,0.24352 -0.258504,0.48687 -0.347528,0.74651 -0.498337,1.45345 -0.652063,3.01325 -1.132678,4.4791 -0.284459,0.86758 -0.790689,1.66069 -1.003957,2.54846 -0.07319,0.30464 -0.231454,0.76066 0.02574,0.93957 1.362925,0.94809 7.184861,0.129 8.842579,0.0772"
       id="path3892" />
    <path
       style="fill:none;stroke:#16ff00;stroke-width:1.065"
       d="m 133.10133,133.88676 c -1.45045,-1.81041 -3.43149,-2.92361 -5.23861,-4.31178 -1.48606,-1.14153 -2.49717,-2.77391 -3.92575,-3.98999 -1.75999,-1.4982 -3.66223,-2.82514 -5.38021,-4.37613 -1.53878,-1.38922 -2.84583,-2.9922 -4.36337,-4.40187 -1.96857,-1.82862 -4.06467,-3.46297 -6.13962,-5.16125 -1.33942,-0.69344 -2.12273,-2.00208 -3.24356,-2.93458 -2.09446,-1.74255 -1.83192,-1.277 -3.87426,-2.75439 -2.252272,-1.62926 -4.299354,-3.53483 -6.474266,-5.26423 -3.558193,-2.82932 -7.274798,-5.474026 -10.721802,-8.443352 -1.338332,-1.152866 -2.770426,-2.193597 -4.105942,-3.34645 -1.228577,-1.060537 -0.984708,-1.04979 -2.046547,-2.213806 -1.068737,-1.171577 -2.266537,-2.145088 -3.372281,-3.269226 -0.388811,-0.395279 -1.061284,-1.632543 -1.62178,-1.570254"
       id="path3900" />
    <path
       style="fill:none;stroke:#16ff00;stroke-width:1.065"
       d="M 76.80225,91.953156 C 76.699279,91.614222 76.616441,91.268502 76.493333,90.936352 76.13632,89.973112 75.6265,89.218097 75.425022,88.181963 75.281417,87.443455 75.639673,86.810037 75.244815,86.109738 74.925341,85.543133 74.026191,84.74625 74.150757,83.9989 c 0.09854,-0.591185 0.112853,-0.808103 -0.205941,-1.312836 -0.168378,-0.266583 -0.356222,-0.509045 -0.347527,-0.514839 1.755573,-1.17031 5.96647,0.908621 7.864371,1.081161"
       id="path3902" />
    <path
       style="fill:none;stroke:#16ff00;stroke-width:1.065"
       d="m 134.31125,135.30256 c -1.46149,-0.16411 -2.92742,-0.2415 -4.37626,-0.50196 -1.34356,-0.24153 -2.64323,-0.73817 -3.9901,-0.92672 -0.0801,-0.0112 -0.89739,-0.0208 -0.92673,-0.16732 -0.0342,-0.17088 0.31044,0.004 1.41585,0.14159 1.65585,0.20538 3.33406,0.25111 4.99407,0.42474 0.48537,0.0508 0.99487,0.003 1.45446,0.16732 0.52386,0.18709 0.87341,0.89516 1.42871,0.86235 0.63901,-0.0378 1.11822,-0.66969 1.53168,-1.15838 0.1199,-0.14171 -0.29783,-0.27806 -0.30892,-0.46336 -0.0238,-0.39838 0.004,-0.79849 0.0257,-1.197 0.13274,-2.45559 -0.21131,-4.65849 -0.64355,-7.07902"
       id="path3904" />
  </g>
</svg>
