<?xml version="1.0" encoding="UTF-8" standalone="no"?>
<!-- Created with Inkscape (http://www.inkscape.org/) -->

<svg
   width="183.62579mm"
   height="107.38393mm"
   viewBox="0 0 183.62579 107.38393"
   version="1.1"
   id="svg5"
   inkscape:version="1.2.2 (b0a8486541, 2022-12-01)"
   sodipodi:docname="ring_1.svg"
   inkscape:export-filename="ring_1.png"
   inkscape:export-xdpi="200"
   inkscape:export-ydpi="200"
   xmlns:inkscape="http://www.inkscape.org/namespaces/inkscape"
   xmlns:sodipodi="http://sodipodi.sourceforge.net/DTD/sodipodi-0.dtd"
   xmlns="http://www.w3.org/2000/svg"
   xmlns:svg="http://www.w3.org/2000/svg">
  <sodipodi:namedview
     id="namedview7"
     pagecolor="#ffffff"
     bordercolor="#000000"
     borderopacity="0.25"
     inkscape:showpageshadow="2"
     inkscape:pageopacity="0.0"
     inkscape:pagecheckerboard="0"
     inkscape:deskcolor="#d1d1d1"
     inkscape:document-units="mm"
     showgrid="false"
     inkscape:zoom="1.3434876"
     inkscape:cx="200.22515"
     inkscape:cy="187.57151"
     inkscape:window-width="1920"
     inkscape:window-height="1010"
     inkscape:window-x="0"
     inkscape:window-y="38"
     inkscape:window-maximized="1"
     inkscape:current-layer="layer1" />
  <defs
     id="defs2" />
  <g
     inkscape:label="Layer 1"
     inkscape:groupmode="layer"
     id="layer1"
     transform="translate(-11.634246,-54.696897)">
    <path
       style="fill:#fd44ff;stroke:#000000;stroke-width:1.065"
       d="m 49.254939,59.432393 c -0.545381,3.363161 -0.355368,1.01424 0.244559,5.933517 0.157732,1.293346 0.289428,2.589866 0.411882,3.88703 0.130697,1.384451 0.24552,2.77046 0.347525,4.157322 0.320789,4.361378 0.202489,3.852513 0.501973,7.06616 0.373073,4.003273 -0.0077,-0.509645 0.231688,2.458355 0.02225,0.275823 -0.167161,0.763709 0.102965,0.823741 0.09519,0.02114 1.119116,-1.498547 1.943568,-1.660353 0.72689,-0.142656 1.479037,-0.09954 2.213867,-0.193067 3.000359,-0.381854 4.320463,-0.831421 7.671303,-0.656418 1.366718,0.07138 8.241392,2.332403 9.061391,0.926709 0.317204,-0.543767 0.105349,-2.105033 0.128712,-2.715774 0.145717,-3.809145 -0.515006,-7.431386 -1.119793,-11.171999 -0.378804,-2.342901 -0.818111,-4.690134 -1.145554,-7.040414 -0.23886,-1.714447 0.01897,-4.373015 -1.428712,-5.650357 -0.762096,-0.672423 -2.286471,-0.214993 -3.192087,-0.205936 -0.761955,0.0076 -1.545924,-0.157628 -2.303957,-0.102965 -2.451291,0.176768 -4.691507,1.178949 -7.066354,1.750449 -3.005821,0.723341 -5.167707,-0.449943 -7.722783,1.801937"
       id="path799" />
    <path
       style="fill:#fd44ff;stroke:#000000;stroke-width:1.065"
       d="m 130.48574,57.553232 c 0.98081,6.135375 -0.1625,12.381283 -1.04256,18.456963 -0.35716,2.465742 -0.35887,4.902859 -0.56634,7.375067 -0.0333,0.396306 -0.083,0.911461 -0.19307,1.312839 -0.0378,0.137726 -0.33267,0.259403 -0.23169,0.360386 1.46591,1.465874 8.4977,0.278061 10.24556,0.115837 1.66619,-0.154643 3.35151,-0.01995 5.01982,0 1.74568,0.02088 3.55213,-0.159194 5.2901,0 0.61615,0.05644 3.51747,1.380929 3.65544,1.261356 0.0528,-0.04573 0.20175,-2.899738 0.2317,-3.153388 0.48888,-4.140957 0.93008,-8.213276 0.68216,-12.394743 -0.18885,-3.185414 -0.32266,-3.377223 -0.42474,-6.100836 -0.0327,-0.873533 0.13452,-6.630133 -0.63069,-7.336443 -0.0696,-0.06427 -3.23828,-0.498306 -3.3208,-0.501973 -2.92457,-0.129979 -6.00866,-0.499592 -8.90694,-0.01286 -2.43845,0.409504 -4.79728,0.906275 -7.25943,1.197002 -0.44771,0.05286 -0.899,0.29297 -1.33861,0.193061 -0.46655,-0.106035 -0.8066,-0.51484 -1.20991,-0.772258 z"
       id="path801" />
    <path
       style="fill:#fd44ff;stroke:#000000;stroke-width:1.065"
       d="m 49.705439,137.30173 c -0.07707,4.18661 -0.116422,-0.13416 0.489112,5.53452 0.109288,1.02311 0.08432,3.60243 0.03861,4.59493 -0.08846,1.92077 -0.31909,4.5748 -0.476237,6.52558 -0.01005,0.12484 -0.430289,4.40039 -0.244562,4.36326 2.141325,-0.42815 3.720517,2.71587 6.229717,3.05042 2.289696,0.30528 4.466455,-0.21202 6.718827,-0.51485 1.89979,-0.25542 3.956341,-0.37375 5.766342,-1.05541 0.602112,-0.22676 1.256284,-0.67068 1.827718,-0.93958 1.081217,-0.5088 1.668251,0.0528 2.651495,0.45048 0.61304,0.24796 1.054497,0.13349 1.673273,0.50197 0.471178,0.28058 1.026446,1.01812 1.608907,0.37326 0.759982,-0.8414 0.123325,-2.87004 0.03862,-3.62962 -0.287906,-2.58175 -0.476573,-5.21564 -0.347525,-7.81267 0.12958,-2.60773 0.849953,-5.16876 1.209897,-7.74833 0.133276,-0.95513 0.708726,-3.24733 0.141584,-4.18306 -0.370295,-0.61095 -3.850669,-0.27462 -4.607925,-0.33464 -2.127403,-0.16863 -4.231447,-0.375 -6.371302,-0.3089 -2.11941,0.0654 -4.202445,0.42452 -6.319805,0.51483 -1.803429,0.0769 -3.592163,0.10445 -5.393082,0.23169 -2.032963,0.14362 -2.597507,-0.2732 -4.633661,0.38612 z"
       id="path803" />
    <path
       style="fill:#fd44ff;stroke:#000000;stroke-width:1.065"
       d="m 134.34714,135.35822 c -0.55888,0.85354 -0.76285,0.83818 -0.79802,1.67323 -0.0564,1.33969 0.48611,3.07281 0.6693,4.28602 0.28019,1.85558 0.47671,3.84383 0.50199,5.7147 0.0538,3.98061 -0.0161,4.135 -0.43763,7.68397 -0.14991,1.262 -0.48911,2.64666 -0.48911,3.92564 0,0.31575 0.44558,-0.44999 0.69505,-0.64354 0.48463,-0.376 1.13854,-0.29073 1.69902,-0.19307 1.31003,0.22826 2.59122,0.61697 3.9,0.86236 1.69179,0.3172 3.39563,0.52205 5.09704,0.77226 1.57354,0.2314 3.11027,0.54892 4.60793,1.09403 1.00481,0.36573 1.97224,0.91199 3.06336,1.00394 2.08161,0.17541 2.84652,-1.75834 4.59507,-2.27817 0.12288,-0.0365 2.04081,-0.17362 2.22673,-0.16732 0.25671,0.009 0.7383,0.48232 0.96534,0.38613 0.51666,-0.21892 0.4696,-0.42638 0.46337,-0.84948 -0.0319,-2.16753 -0.74845,-4.42102 -1.06832,-6.55132 -0.34492,-2.2971 -0.40219,-3.38475 -0.4891,-5.88204 -0.0669,-1.92118 0.008,-3.86629 0.19307,-5.77906 0.10064,-1.03991 0.63185,-3.10692 0.36038,-4.1187 -0.16838,-0.62759 -1.13498,-0.94941 -1.67327,-1.20988 -0.48518,-0.23477 -0.83354,-0.66956 -1.3,-0.9267 -1.77732,-0.97977 -4.45591,-0.76252 -6.34554,-0.47622 -2.42824,0.36789 -4.74042,0.78087 -7.20794,0.56631 -2.0356,-0.177 -3.99886,-0.22958 -6.03663,-0.24455 -0.89911,-0.007 -2.13823,-0.3378 -3.01189,-0.0386 -0.55632,0.19052 -0.19616,1.15346 -0.1802,1.39007 z"
       id="path805" />
    <path
       style="fill:none;stroke:#16ff00;stroke-width:1.065;stroke-opacity:1"
       d="m 57.286638,71.325168 c 0.336963,-0.779889 3.350959,-4.875057 3.217823,-5.096905 -0.09366,-0.156075 -0.111755,0.361863 -0.07723,0.540581 0.153506,0.794592 0.374364,1.249577 0.643569,2.097969 0.438756,1.382723 0.714526,2.750762 0.81089,4.195934"
       id="path1988" />
    <path
       style="fill:none;stroke:#16ff00;stroke-width:1.065;stroke-opacity:1"
       d="m 139.30259,70.565779 c -0.64506,-0.331922 2.83181,-5.03678 3.34654,-3.46229 0.84791,2.593597 -1.20364,5.782644 -2.87031,7.645352 -0.30566,0.341617 -0.58402,0.301327 -0.90098,0.527712 -0.40302,0.287856 0.98643,-0.09038 1.48021,-0.128709 0.87963,-0.06828 1.76861,-0.102971 2.65147,-0.102971"
       id="path1990" />
    <path
       style="fill:none;stroke:#16ff00;stroke-width:1.065;stroke-opacity:1"
       d="m 142.40457,144.26493 c 1.20389,-1.48595 1.78264,-1.90753 3.52675,-1.20988 0.005,0.002 0.71385,0.17949 0.75941,0.43762 0.1238,0.7014 -1.88187,1.62131 -1.6218,2.9217 0.19956,0.99786 3.76569,1.41132 3.73268,1.82768 -0.16855,2.12604 -3.08127,4.19596 -5.09704,3.82267"
       id="path1992" />
    <path
       style="fill:none;stroke:#16ff00;stroke-width:1.065;stroke-opacity:1"
       d="m 59.848019,145.50053 c -0.573103,0.95907 -0.902671,1.9731 -1.248508,3.02469 -0.02019,0.0614 -0.703987,2.15957 -0.52773,2.2138 0.569386,0.1752 1.283441,-0.0713 1.840606,-0.15446 0.813771,-0.12145 1.385125,-0.15645 2.213853,-0.27028 1.310717,-0.18003 3.170269,-1.00079 4.324768,-0.0772"
       id="path1994" />
    <path
       style="fill:none;stroke:#16ff00;stroke-width:1.065;stroke-opacity:1"
       d="m 63.374759,147.64998 c -1.171602,1.68546 -1.042578,3.81801 -1.042578,5.79194"
       id="path1996" />
  </g>
</svg>
