<?xml version="1.0" encoding="UTF-8" standalone="no"?>
<!-- Created with Inkscape (http://www.inkscape.org/) -->

<svg
   width="135.41472mm"
   height="77.534218mm"
   viewBox="0 0 135.41472 77.534218"
   version="1.1"
   id="svg2311"
   sodipodi:docname="mesh_send.svg"
   inkscape:version="1.2.2 (b0a8486541, 2022-12-01)"
   inkscape:export-filename="mesh_send.png"
   inkscape:export-xdpi="200"
   inkscape:export-ydpi="200"
   xmlns:inkscape="http://www.inkscape.org/namespaces/inkscape"
   xmlns:sodipodi="http://sodipodi.sourceforge.net/DTD/sodipodi-0.dtd"
   xmlns="http://www.w3.org/2000/svg"
   xmlns:svg="http://www.w3.org/2000/svg">
  <sodipodi:namedview
     id="namedview2313"
     pagecolor="#ffffff"
     bordercolor="#000000"
     borderopacity="0.25"
     inkscape:showpageshadow="2"
     inkscape:pageopacity="0.0"
     inkscape:pagecheckerboard="0"
     inkscape:deskcolor="#d1d1d1"
     inkscape:document-units="mm"
     showgrid="false"
     inkscape:zoom="1.6546817"
     inkscape:cx="200.64281"
     inkscape:cy="149.27342"
     inkscape:window-width="1920"
     inkscape:window-height="1040"
     inkscape:window-x="0"
     inkscape:window-y="726"
     inkscape:window-maximized="1"
     inkscape:current-layer="layer1" />
  <defs
     id="defs2308" />
  <g
     inkscape:label="Layer 1"
     inkscape:groupmode="layer"
     id="layer1"
     transform="translate(11.095921,-81.605013)">
    <path
       style="fill:none;stroke:#070032;stroke-width:0.600001;stroke-linecap:round;stroke-linejoin:round;stroke-dasharray:none;stroke-opacity:1"
       d="m 6.8693305,119.1242 c 0.177427,-0.0159 0.354266,-0.0411 0.532282,-0.0478 0.5531117,-0.0207 1.1227334,0.13111 1.6719111,0.17742 1.5474024,0.13051 3.1707324,0.11448 4.7222964,0.23202 0.53367,0.0404 1.054978,0.16952 1.590022,0.19789 1.566611,0.0831 3.153563,0.0812 4.722297,0.10919 1.259855,0.0225 2.520842,-0.0739 3.780568,-0.0205 3.326865,0.14112 6.721077,0.24734 10.024644,-0.007"
       id="path3536" />
    <path
       style="fill:none;stroke:#070032;stroke-width:0.600001;stroke-linecap:round;stroke-linejoin:round;stroke-dasharray:none;stroke-opacity:1"
       d="m 33.299181,119.49951 c 0.81693,-0.66369 0.426403,-0.0923 1.119159,0.30026 0.137705,0.078 -0.327335,0.54603 -0.423098,0.62098 -0.608579,0.47626 -1.828176,-0.34897 -0.696061,-0.92124 0.231982,-0.11726 0.511191,-0.116 0.771126,-0.116 0.04101,0 0.02617,0.0778 0.04094,0.116 0.03209,0.0831 0.17743,0.28371 0.17743,0.38215 0,0.51842 -1.225905,0.96144 -1.583201,0.49132 -0.07944,-0.10452 -0.06799,-0.2297 -0.04094,-0.34802 0.144018,-0.63005 0.875097,-0.58793 1.412592,-0.47767 0.241613,0.0496 -0.158472,0.93793 -0.661942,1.03041 -0.919126,0.16883 -0.860018,-1.48878 -0.586872,-1.41256 1.484971,0.41441 -0.849567,0.52533 1.248814,0.0205 0.188392,-0.0453 0.374351,0.49089 0.395801,0.60734 0.120245,0.65276 -0.734668,1.29338 -1.358003,1.2556 -1.252834,-0.076 -1.303901,-1.71252 -0.218371,-2.32696 0.112226,-0.0635 0.255812,-0.1257 0.388977,-0.0887 0.205663,0.0571 0.944441,0.40712 1.071385,0.55273 0.605706,0.69477 0.08867,1.79281 -0.655113,2.09496 -0.174101,0.0707 -0.651156,0.33545 -0.791602,0.0546"
       id="path3544" />
    <path
       style="fill:none;stroke:#070032;stroke-width:0.600001;stroke-linecap:round;stroke-linejoin:round;stroke-dasharray:none;stroke-opacity:1"
       d="m 60.925223,97.289641 c 0.04751,1.095917 0.202536,2.203085 0.211547,3.302789 0.0065,0.79265 -0.15395,1.71728 -0.02048,2.49757 0.04149,0.24255 0.16796,0.44978 0.218373,0.68923 0.154464,0.73368 0.0011,1.41675 -0.08871,2.1359 -0.07236,0.57886 -0.01707,1.13295 -0.0273,1.70599 -0.0043,0.23777 -0.470064,0.78426 -0.266139,0.66192 0.273031,-0.1638 0.573852,-0.40078 0.866663,-0.52544 1.170522,-0.49833 -0.256934,0.19145 0.805249,-0.29343 0.252717,-0.11537 0.450527,-0.3052 0.696058,-0.42991 0.587613,-0.29847 1.197459,-0.55112 1.781098,-0.853 0.353391,-0.18278 0.588688,-0.43847 0.914435,-0.64827 0.396438,-0.25533 0.939485,-0.55042 1.378471,-0.71652 0.772649,-0.29235 1.579941,-0.45952 2.347502,-0.75064 0.03524,-0.0134 0.546434,-0.26947 0.450395,-0.35484 -0.251501,-0.22354 -0.584757,-0.33972 -0.846192,-0.55275 -0.355968,-0.29004 -0.570775,-0.75507 -0.969031,-0.98264 -0.640466,-0.36598 -1.347581,-0.61447 -1.98582,-0.98266 -0.515919,-0.29763 -0.818864,-0.83822 -1.317056,-1.15325 -0.59799,-0.378134 -1.326861,-0.470465 -1.931228,-0.812053 -0.290089,-0.163959 -0.455967,-0.521253 -0.730181,-0.730162 -0.325041,-0.247635 -0.795864,-0.3985 -1.078212,-0.689224 -0.15345,-0.158001 -0.272965,-0.345739 -0.409447,-0.51861 z"
       id="path5052" />
    <path
       style="fill:none;stroke:#070032;stroke-width:0.600001;stroke-linecap:round;stroke-linejoin:round;stroke-dasharray:none;stroke-opacity:1"
       d="m 61.072963,131.24137 c 0.04751,1.09591 0.202536,2.20308 0.211547,3.30279 0.0065,0.79265 -0.15395,1.71727 -0.02048,2.49756 0.04149,0.24254 0.16796,0.44977 0.218373,0.68922 0.154464,0.73367 0.0011,1.41674 -0.08871,2.13589 -0.07236,0.57886 -0.01707,1.13295 -0.0273,1.70599 -0.0043,0.23777 -0.470064,0.78426 -0.266139,0.66192 0.273031,-0.1638 0.573852,-0.40078 0.866663,-0.52544 1.170522,-0.49833 -0.256934,0.19145 0.805249,-0.29343 0.252717,-0.11537 0.450527,-0.3052 0.696058,-0.42991 0.587613,-0.29847 1.197459,-0.55112 1.781098,-0.853 0.353391,-0.18278 0.588688,-0.43847 0.914435,-0.64827 0.396438,-0.25533 0.939485,-0.55042 1.378471,-0.71652 0.772649,-0.29235 1.579941,-0.45951 2.347502,-0.75063 0.03524,-0.0134 0.546434,-0.26948 0.450395,-0.35484 -0.251501,-0.22354 -0.584757,-0.33973 -0.846192,-0.55274 -0.355968,-0.29004 -0.570775,-0.75508 -0.969031,-0.98265 -0.640466,-0.36597 -1.347581,-0.61446 -1.98582,-0.98265 -0.515919,-0.29763 -0.818864,-0.83821 -1.317056,-1.15324 -0.59799,-0.37814 -1.326861,-0.47047 -1.931228,-0.81206 -0.290089,-0.16396 -0.455967,-0.52125 -0.730181,-0.73016 -0.325041,-0.24763 -0.795864,-0.3985 -1.078212,-0.68922 -0.15345,-0.158 -0.272965,-0.34574 -0.409447,-0.51861 z"
       id="path5052-0" />
    <path
       style="fill:none;stroke:#070032;stroke-width:0.600001;stroke-linecap:round;stroke-linejoin:round;stroke-dasharray:none;stroke-opacity:1"
       d="m 61.345524,147.82822 c 0.04751,1.09591 0.202536,2.20308 0.211547,3.30279 0.0065,0.79265 -0.15395,1.71727 -0.02048,2.49756 0.04149,0.24254 0.16796,0.44977 0.218373,0.68922 0.154464,0.73367 0.0011,1.41674 -0.08871,2.13589 -0.07236,0.57886 -0.01707,1.13295 -0.0273,1.70599 -0.0043,0.23777 -0.470064,0.78426 -0.266139,0.66192 0.273031,-0.1638 0.573852,-0.40078 0.866663,-0.52544 1.170522,-0.49833 -0.256934,0.19145 0.805249,-0.29343 0.252717,-0.11537 0.450527,-0.3052 0.696058,-0.42991 0.587613,-0.29847 1.197459,-0.55112 1.781098,-0.853 0.353391,-0.18278 0.588688,-0.43847 0.914435,-0.64827 0.396438,-0.25533 0.939485,-0.55042 1.378471,-0.71652 0.772649,-0.29235 1.579941,-0.45951 2.347502,-0.75063 0.03524,-0.0134 0.546434,-0.26948 0.450395,-0.35484 -0.251501,-0.22354 -0.584757,-0.33973 -0.846192,-0.55274 -0.355968,-0.29004 -0.570775,-0.75508 -0.969031,-0.98265 -0.640466,-0.36597 -1.347581,-0.61446 -1.98582,-0.98265 -0.515919,-0.29763 -0.818864,-0.83821 -1.317056,-1.15324 -0.59799,-0.37814 -1.326861,-0.47047 -1.931228,-0.81206 -0.290089,-0.16396 -0.455967,-0.52125 -0.730181,-0.73016 -0.325041,-0.24763 -0.795864,-0.3985 -1.078212,-0.68922 -0.15345,-0.158 -0.272965,-0.34574 -0.409447,-0.51861 z"
       id="path5052-0-6" />
    <path
       style="fill:none;stroke:#070032;stroke-width:0.600001;stroke-linecap:round;stroke-linejoin:round;stroke-dasharray:none;stroke-opacity:1"
       d="m 60.931403,81.904945 c 0.04751,1.095917 0.202536,2.203085 0.211547,3.302791 0.0065,0.792647 -0.15395,1.717268 -0.02048,2.497558 0.04149,0.242544 0.16796,0.449776 0.218373,0.689224 0.154464,0.733668 0.0011,1.416744 -0.08871,2.135894 -0.07236,0.57886 -0.01707,1.13295 -0.0273,1.70599 -0.0043,0.23777 -0.470064,0.78426 -0.266139,0.66192 0.273031,-0.1638 0.573852,-0.40078 0.866663,-0.52544 1.170522,-0.49833 -0.256934,0.19145 0.805249,-0.29343 0.252717,-0.11537 0.450527,-0.3052 0.696058,-0.42991 0.587613,-0.29847 1.197459,-0.55112 1.781098,-0.853 0.353391,-0.18278 0.588688,-0.43847 0.914435,-0.64827 0.396438,-0.25533 0.939485,-0.55042 1.378471,-0.71652 0.772649,-0.29235 1.579941,-0.459519 2.347502,-0.750635 0.03524,-0.01336 0.546434,-0.269478 0.450395,-0.35484 -0.251501,-0.223539 -0.584757,-0.339725 -0.846192,-0.552744 -0.355968,-0.290039 -0.570775,-0.755071 -0.969031,-0.982641 -0.640466,-0.365977 -1.347581,-0.614461 -1.98582,-0.982655 -0.515919,-0.29763 -0.818864,-0.838213 -1.317056,-1.153242 -0.59799,-0.378135 -1.326861,-0.470466 -1.931228,-0.812054 -0.290089,-0.163959 -0.455967,-0.521253 -0.730181,-0.730162 -0.325041,-0.247635 -0.795864,-0.3985 -1.078212,-0.689224 -0.15345,-0.158001 -0.272965,-0.345739 -0.409447,-0.51861 z"
       id="path5052-9" />
    <path
       style="fill:none;stroke:#070032;stroke-width:0.600001;stroke-linecap:round;stroke-linejoin:round;stroke-dasharray:none;stroke-opacity:1"
       d="m 60.962404,114.16127 c 0.04751,1.09592 0.202536,2.20308 0.211547,3.30279 0.0065,0.79265 -0.15395,1.71727 -0.02048,2.49756 0.04149,0.24254 0.16796,0.44977 0.218373,0.68922 0.154464,0.73367 0.0011,1.41675 -0.08871,2.1359 -0.07236,0.57886 -0.01707,1.13295 -0.0273,1.70599 -0.0043,0.23777 -0.470064,0.78426 -0.266139,0.66192 0.273031,-0.1638 0.573852,-0.40078 0.866663,-0.52544 1.170522,-0.49833 -0.256934,0.19145 0.805249,-0.29343 0.252717,-0.11537 0.450527,-0.3052 0.696058,-0.42991 0.587613,-0.29847 1.197459,-0.55112 1.781098,-0.853 0.353391,-0.18278 0.588688,-0.43847 0.914435,-0.64827 0.396438,-0.25533 0.939485,-0.55042 1.378471,-0.71652 0.772649,-0.29235 1.579941,-0.45952 2.347502,-0.75064 0.03524,-0.0134 0.546434,-0.26948 0.450395,-0.35484 -0.251501,-0.22354 -0.584757,-0.33972 -0.846192,-0.55274 -0.355968,-0.29004 -0.570775,-0.75507 -0.969031,-0.98264 -0.640466,-0.36598 -1.347581,-0.61446 -1.98582,-0.98266 -0.515919,-0.29763 -0.818864,-0.83821 -1.317056,-1.15324 -0.59799,-0.37814 -1.326861,-0.47047 -1.931228,-0.81205 -0.290089,-0.16396 -0.455967,-0.52126 -0.730181,-0.73017 -0.325041,-0.24763 -0.795864,-0.3985 -1.078212,-0.68922 -0.15345,-0.158 -0.272965,-0.34574 -0.409447,-0.51861 z"
       id="path5052-3" />
    <path
       style="fill:none;stroke:#070032;stroke-width:0.600001;stroke-linecap:round;stroke-linejoin:round;stroke-dasharray:none;stroke-opacity:1"
       d="m 33.523137,120.07474 c 0.26957,-0.10023 0.516048,-0.21583 0.800862,-0.24211 0.564467,-0.0521 1.153845,-0.01 1.719672,-0.0124 1.278943,-0.006 2.557865,0.0132 3.836681,0.006 2.371762,-0.0131 4.743365,-0.0717 7.114614,-0.0869 1.457589,-0.009 2.925426,0.12671 4.383,0.16762 1.111239,0.0312 2.217076,-0.0101 3.327603,-0.0249 1.697406,-0.0225 3.400716,0.10997 5.096947,0.0435 0.296175,-0.0116 0.863902,0.007 0.887772,-0.13658 0.03751,-0.22497 -1.773338,-0.61688 -1.992836,-0.68908 -0.171606,-0.0565 -0.288705,-0.0936 -0.471826,-0.10555 -0.06212,-0.004 -0.239453,-0.0311 -0.180033,-0.0497 0.598786,-0.18712 2.041054,0.47013 2.520534,0.7698 0.07646,0.0478 0.546505,0.28457 0.527696,0.37868 -0.0055,0.0277 -0.450199,0.0776 -0.595987,0.15521 -0.537673,0.28617 -0.935263,0.79007 -1.42789,1.13607 -0.189328,0.13298 -0.378029,0.21083 -0.533906,0.37869"
       id="path5258" />
    <path
       style="fill:none;stroke:#070032;stroke-width:0.600001;stroke-linecap:round;stroke-linejoin:round;stroke-dasharray:none;stroke-opacity:1"
       d="m 33.504515,120.50309 c 0.733547,-1.13706 1.244439,-2.41681 1.961796,-3.56342 0.327543,-0.52354 0.711991,-1.01054 1.030565,-1.53959 0.681106,-1.1311 1.199332,-2.35089 2.005253,-3.40823 1.004218,-1.31748 -0.07949,0.19558 1.105059,-1.28506 0.464442,-0.58054 0.796009,-1.15509 1.309936,-1.71342 0.338315,-0.36754 0.766286,-0.63751 1.142315,-0.96225 0.531474,-0.45899 0.977352,-0.99746 1.570672,-1.3844 0.376693,-0.24566 0.793076,-0.40374 1.191977,-0.60838 0.864389,-0.44346 1.780344,-0.74237 2.650914,-1.16091 0.473929,-0.22784 1.004636,-0.46093 1.5148,-0.59597 0.655979,-0.17364 1.298212,-0.34735 1.949379,-0.54632 1.015378,-0.31025 2.066207,-0.61109 3.128941,-0.7077 0.714735,-0.065 1.446636,-0.0218 2.166667,-0.0745 0.477489,-0.0349 0.935123,-0.11795 1.415476,-0.11795 0.676209,0 1.388063,5e-5 2.061128,0.0869 0.197154,0.0255 0.393917,0.0162 0.58978,0.0373 0.0993,0.0106 0.375981,0.0934 0.297995,0.031 -0.378579,-0.30283 -0.816009,-0.50995 -1.247854,-0.72013 -0.211114,-0.10275 -0.421328,-0.21087 -0.620821,-0.33523 -0.224729,-0.14009 -0.410274,-0.33172 -0.627028,-0.47803 -0.08251,-0.0557 -0.333672,-0.18896 -0.279374,-0.10553 0.471985,0.72522 1.220274,0.87626 1.918343,1.3099 0.201848,0.12539 0.272936,0.27978 0.428366,0.44076 0.107971,0.11183 0.267512,0.20458 0.217286,0.37869 -0.257386,0.89228 -1.248963,1.52209 -1.819005,2.19766 -0.105767,0.12534 -0.241006,0.11095 -0.285575,0.26694"
       id="path5260" />
    <path
       style="fill:none;stroke:#070032;stroke-width:0.600001;stroke-linecap:round;stroke-linejoin:round;stroke-dasharray:none;stroke-opacity:1"
       d="m 33.299643,120.34168 c 0.122491,-0.99645 -0.05175,-2.00519 0.0745,-3.02331 0.204287,-1.64745 0.575371,-3.27775 0.869151,-4.91057 0.352618,-1.95982 0.679571,-3.91338 1.303721,-5.81074 0.376833,-1.14554 0.910352,-2.23281 1.340977,-3.35855 0.263784,-0.68959 0.476017,-1.39833 0.744987,-2.08591 0.521378,-1.332811 1.410888,-2.513373 2.166662,-3.71242 0.398733,-0.63259 0.752677,-1.295802 1.223024,-1.881029 0.377957,-0.470268 0.838329,-0.863052 1.235437,-1.316117 0.304938,-0.347908 0.588039,-0.73353 0.931233,-1.049157 0.730081,-0.671436 1.656757,-1.168747 2.477074,-1.719633 0.879541,-0.590659 1.734503,-1.242282 2.638494,-1.794121 0.520144,-0.317521 1.107133,-0.447649 1.638964,-0.732547 0.440838,-0.236154 0.830474,-0.556381 1.278895,-0.782222 0.934493,-0.470641 2.384626,-1.016651 3.445558,-0.962242 0.482759,0.02477 1.05089,0.06233 1.52722,0.167616 0.301561,0.06666 0.562583,0.177933 0.87536,0.186238 0.642885,0.01707 1.245315,-0.141049 1.893507,-0.105534 0.07254,0.004 1.502032,0.04381 1.52722,0.01863 0.03798,-0.03798 -0.111432,-0.225147 -0.347657,-0.341442 -0.587949,-0.289446 -1.255567,-0.36472 -1.862463,-0.608388 -0.224322,-0.09007 -0.369226,-0.193151 -0.6022,-0.211071 -0.103679,-0.008 -0.393128,-0.09406 -0.310412,-0.03104 0.05618,0.04281 0.119161,0.07593 0.180041,0.111744 0.516396,0.303752 1.171374,0.437803 1.750714,0.57114 0.687962,0.158337 1.167802,-0.0935 1.117478,0.72014 -0.014,0.226409 -0.06573,0.446059 -0.173826,0.645629 -0.190958,0.352528 -0.383651,0.484065 -0.695325,0.738761 -0.365037,0.298302 -0.619043,0.677696 -0.862941,1.073994"
       id="path5262" />
    <path
       style="fill:none;stroke:#070032;stroke-width:0.600001;stroke-linecap:round;stroke-linejoin:round;stroke-dasharray:none;stroke-opacity:1"
       d="m 33.728009,120.33904 c -0.07657,0.14072 -0.189844,0.26699 -0.229704,0.42215 -0.106701,0.41537 0.851316,1.72314 1.005732,2.17902 0.13204,0.38982 0.219977,0.76819 0.391118,1.14849 0.200096,0.44465 0.466698,0.84229 0.676698,1.27886 0.178271,0.37062 0.309398,0.80198 0.533905,1.1485 0.225751,0.34843 0.534289,0.62919 0.751192,0.98707 1.326309,2.18833 3.536572,4.77436 5.91022,5.82315 1.182497,0.52249 2.414119,0.8327 3.65664,1.1609 0.557196,0.14718 1.08472,0.37761 1.645179,0.50907 1.497883,0.35135 3.036189,0.60379 4.563033,0.79463 1.463299,0.1829 2.940262,0.13643 4.407837,0.22349 1.075383,0.0638 2.176107,0.0869 3.246895,-0.0559 0.135398,-0.018 0.465669,0.0744 0.546325,-0.006 0.0199,-0.0199 -0.312688,-0.21201 -0.502865,-0.34144 -0.618982,-0.42125 -1.298919,-0.63722 -1.992836,-0.90017 -0.177792,-0.0674 -0.361154,-0.13125 -0.509077,-0.25452 -0.03604,-0.03 -0.150207,-0.10748 -0.10554,-0.0931 0.122733,0.0394 0.246261,0.0771 0.366284,0.12415 0.512453,0.2009 0.906944,0.41086 1.365808,0.6891 0.224872,0.13636 1.197346,0.49165 1.247855,0.79463 0.01019,0.0611 -0.133609,0.16417 -0.161412,0.21108 -0.627589,1.05898 -1.755407,1.60054 -2.588831,2.48943"
       id="path5264" />
    <path
       style="fill:none;stroke:#070032;stroke-width:0.600001;stroke-linecap:round;stroke-linejoin:round;stroke-dasharray:none;stroke-opacity:1"
       d="m 33.367935,120.3825 c -0.05258,0.37042 -0.10381,0.74472 -0.03725,1.11745 0.08555,0.47904 0.367202,0.8916 0.459407,1.36577 0.157472,0.80983 0.06061,1.63906 0.161411,2.45218 0.127003,1.0244 0.28543,2.03104 0.459415,3.04816 0.227208,1.32827 0.12279,2.693 0.397325,4.0166 0.234127,1.12879 0.712864,2.13076 1.111265,3.20336 0.495229,1.33326 0.918009,2.68713 1.651392,3.91728 0.404111,0.67784 1.002808,1.13715 1.52101,1.71342 0.723149,0.80417 1.438148,1.58089 2.203913,2.34664 0.403723,0.40371 0.677532,0.8904 1.061609,1.30369 0.788522,0.8485 1.738519,1.6348 2.650908,2.34664 1.47189,1.14838 3.214526,1.74953 4.904486,2.47702 0.688967,0.29658 1.347922,0.65867 2.042507,0.94362 0.414816,0.17018 0.859131,0.26559 1.285099,0.40353 2.122199,0.68719 4.315278,1.28123 6.555875,1.34714 0.232841,0.007 1.232768,0.17282 1.272686,0.16141 0.0813,-0.0232 -0.01342,-0.32782 -0.279371,-0.57114 -0.447323,-0.40925 -1.120767,-0.65482 -1.651384,-0.94363 -0.138509,-0.0754 -0.279299,-0.15005 -0.422164,-0.21727 -0.01601,-0.008 -0.06548,-0.0265 -0.04966,-0.0186 0.902859,0.45142 1.628487,1.12614 2.439831,1.70722 0.220769,0.15811 0.44308,0.28973 0.682901,0.41594 0.06407,0.0337 0.241863,0.0654 0.186245,0.11175 -0.08389,0.0699 -1.278768,0.41066 -1.42789,0.4656 -0.434615,0.16012 -0.938067,0.6005 -1.37822,0.57735"
       id="path5266" />
    <path
       style="fill:none;stroke:#070032;stroke-width:0.600001;stroke-linecap:round;stroke-linejoin:round;stroke-dasharray:none;stroke-opacity:1"
       d="m 70.629642,88.766271 c 2.009555,0.08848 4.025786,-0.131197 6.040593,-0.08691 1.0521,0.02312 2.094436,0.161015 3.153778,0.124162 1.039992,-0.03618 2.061294,-0.125535 3.0979,-0.21108 1.693863,-0.139787 3.395544,-0.164653 5.090732,-0.291774 0.582874,-0.04371 1.167735,0.0058 1.750721,-0.03104 0.424196,-0.0268 0.846984,-0.106061 1.27268,-0.111744 0.134612,-0.0019 0.834118,0.162673 0.962271,0.05587 0.08019,-0.06683 -0.09352,-0.302995 -0.415946,-0.602181 -0.303337,-0.281469 -0.870558,-0.486124 -1.185772,-0.633219 -0.008,-0.0037 -0.976149,-0.40772 -0.751192,-0.478017 0.712515,-0.222661 3.002222,1.733261 2.7999,1.967947 -0.0482,0.05591 -0.404812,0.165981 -0.409734,0.167621 -0.839189,0.279725 -2.469933,0.479883 -2.992358,1.154697"
       id="path5268" />
    <path
       style="fill:none;stroke:#070032;stroke-width:0.600001;stroke-linecap:round;stroke-linejoin:round;stroke-dasharray:none;stroke-opacity:1"
       d="m 70.145404,103.99692 c 0.650711,0.0888 1.312727,0.0987 1.968,0.0621 1.341355,-0.0749 2.656295,-0.28869 4.004302,-0.30419 0.596238,-0.007 1.180941,0.0679 1.775552,0.0869 1.152541,0.0368 2.305714,-0.0543 3.457975,-0.0373 1.639771,0.0242 3.275129,0.0993 4.916905,0.0993 0.556009,0 1.12181,-0.0302 1.676223,0.0186 0.546767,0.0481 1.88777,0.30662 2.414992,0.0807 0.16074,-0.0689 -0.320376,-0.14555 -0.490447,-0.18625 -0.124,-0.0297 -0.250399,-0.0502 -0.372499,-0.0869 -0.182528,-0.0549 -2.303291,-0.91246 -2.054913,-1.1609 0.110355,-0.11038 0.31242,0.0197 0.465611,0.0497 0.704765,0.13764 1.669732,0.85797 2.421207,1.19195 0.04651,0.0207 0.180946,0.0433 0.136584,0.0683 -0.352579,0.19831 -0.798973,0.26947 -1.167152,0.4594 -1.160925,0.59888 -2.196316,1.37499 -3.14135,2.27215"
       id="path5270" />
    <path
       style="fill:none;stroke:#070032;stroke-width:0.600001;stroke-linecap:round;stroke-linejoin:round;stroke-dasharray:none;stroke-opacity:1"
       d="m 70.350276,120.70279 c 0.297995,-0.0393 0.593688,-0.10495 0.893982,-0.11795 0.754343,-0.0327 1.550871,0.0899 2.309453,0.0931 3.090381,0.0131 6.206992,0.17396 9.293703,-0.0373 0.839804,-0.0575 1.671945,-0.1431 2.514317,-0.14899 0.0715,-5.3e-4 1.092351,0.0728 1.098857,0.0186 0.08051,-0.67097 -0.926594,-1.20582 -1.340966,-1.54581 -0.129503,-0.10626 -0.285568,-0.23462 -0.360082,-0.3911 -0.0091,-0.0191 -0.03116,-0.0718 -0.01241,-0.0621 0.333258,0.17237 0.567467,0.48873 0.856731,0.72013 0.290118,0.23208 0.855983,0.44794 0.949867,0.8443 0.01529,0.0646 0.03815,0.17757 -0.0062,0.24211 -0.237855,0.34598 -0.670346,0.55597 -0.98711,0.81947 -0.499393,0.41541 -1.039297,0.82044 -1.521008,1.25402"
       id="path5272" />
    <path
       style="fill:none;stroke:#070032;stroke-width:0.600001;stroke-linecap:round;stroke-linejoin:round;stroke-dasharray:none;stroke-opacity:1"
       d="m 70.579979,138.02325 c 0.440783,-0.0807 0.87798,-0.18432 1.322348,-0.24211 0.931812,-0.12119 1.92536,-0.0536 2.86199,-0.0745 2.193724,-0.049 4.405466,-0.12961 6.599335,-0.0373 0.337789,0.0142 2.352794,0.17708 2.563993,-0.0869 0.05966,-0.0746 -0.235591,-0.44664 -0.26696,-0.47801 -0.453943,-0.45395 -1.058092,-0.75246 -1.632759,-1.02433 -0.456933,-0.21618 -0.0746,-0.0279 -0.459407,-0.20487 -0.06054,-0.0279 -0.228042,-0.11946 -0.161419,-0.11795 0.575653,0.0131 3.197521,1.04116 3.184818,1.65134 -0.0064,0.3067 -2.518492,1.62101 -2.731616,1.76309"
       id="path5274" />
    <path
       style="fill:none;stroke:#070032;stroke-width:0.600001;stroke-linecap:round;stroke-linejoin:round;stroke-dasharray:none;stroke-opacity:1"
       d="m 70.977304,154.42492 c 0.165552,-0.029 0.329491,-0.0695 0.496657,-0.0869 0.609854,-0.0634 1.246659,0.0186 1.862466,-0.0248 1.405263,-0.099 2.818016,-0.24282 4.227795,-0.24832 1.010682,-0.004 2.019385,0.0478 3.029604,0.0683 0.990269,0.0201 1.979702,0.003 2.967535,0.0869 1.289105,0.10987 2.535203,0.15521 3.824256,0.0683 0.08204,-0.006 0.881321,0.0684 0.918813,0.0497 0.136369,-0.0682 -0.318003,-0.57339 -0.372489,-0.6208 -0.597693,-0.52005 -1.344755,-0.83512 -1.943168,-1.35957 -0.220483,-0.19323 -0.358487,-0.35456 -0.515284,-0.58976 -0.02709,-0.0406 -0.135163,-0.12557 -0.08692,-0.11796 0.424979,0.0671 0.95191,0.39306 1.340977,0.58978 0.347647,0.17577 2.282585,1.10942 2.166668,1.54579 -0.08149,0.30679 -1.149691,0.82555 -1.403059,1.03055 -0.597217,0.4832 -1.078587,1.11734 -1.576882,1.69479"
       id="path5276" />
    <path
       style="fill:none;stroke:#070032;stroke-width:0.600001;stroke-linecap:round;stroke-linejoin:round;stroke-dasharray:none;stroke-opacity:1"
       d="m 97.577544,84.942777 c -0.161521,-0.04656 -0.317119,-0.124865 -0.484561,-0.13969 -0.350874,-0.03107 -1.823236,0.568537 -1.602108,1.139344 0.299377,0.772784 2.007696,1.001847 2.056112,1.798502 0.04162,0.6848 -1.291812,1.812936 -1.942611,1.820331 -0.223149,0.0026 -0.295476,-0.263123 -0.362331,-0.401606"
       id="path5282" />
    <path
       style="fill:none;stroke:#070032;stroke-width:0.600001;stroke-linecap:round;stroke-linejoin:round;stroke-dasharray:none;stroke-opacity:1"
       d="m 99.68604,85.440418 c 0.03056,1.165538 0.07102,2.330855 0.09167,3.496609 0.0026,0.148574 -0.01146,0.297024 -0.02183,0.445262 -0.0098,0.139785 -0.07556,-0.269925 -0.109132,-0.405974 -0.05022,-0.20353 -0.09736,-0.407821 -0.148426,-0.611142 -0.118042,-0.470003 -0.478491,-1.674987 -0.467101,-2.252499 0.01963,-0.99478 0.218861,-1.944026 1.265969,-2.291783 0.15231,-0.05058 0.33338,-0.02989 0.48019,0.03492 1.0517,0.464299 -0.0592,2.641245 -0.877439,2.811256 -0.450493,0.09361 -0.831517,-0.02019 -1.231048,-0.196437"
       id="path5284" />
    <path
       style="fill:none;stroke:#070032;stroke-width:0.600001;stroke-linecap:round;stroke-linejoin:round;stroke-dasharray:none;stroke-opacity:1"
       d="m 103.35299,84.71578 c -0.0302,1.028293 -0.74612,3.232518 -0.0786,4.14704 0.36807,0.50425 1.38794,0.491717 1.93388,0.580583"
       id="path5286" />
    <path
       style="fill:none;stroke:#070032;stroke-width:0.600001;stroke-linecap:round;stroke-linejoin:round;stroke-dasharray:none;stroke-opacity:1"
       d="m 102.58468,84.336 c 0.95603,-0.05384 1.91205,-0.107678 2.86808,-0.161518"
       id="path5288" />
    <path
       style="fill:none;stroke:#070032;stroke-width:0.600001;stroke-linecap:round;stroke-linejoin:round;stroke-dasharray:none;stroke-opacity:1"
       d="m 102.27473,87.221466 c 0.62426,0.03347 1.24851,0.06693 1.87277,0.100402"
       id="path5290" />
    <path
       style="fill:none;stroke:#070032;stroke-width:0.600001;stroke-linecap:round;stroke-linejoin:round;stroke-dasharray:none;stroke-opacity:1"
       d="m 106.55721,89.404115 c 0.52895,-1.706184 0.0607,-0.07783 0.40599,-4.339111 0.01,-0.120039 -0.0415,-0.320212 0.0742,-0.353592 0.10445,-0.03013 0.10637,0.189815 0.15279,0.288113 0.0773,0.16379 0.14256,0.333089 0.21827,0.497647 0.52735,1.146264 1.16782,2.167294 1.81165,3.247781 0.11453,0.19222 0.57942,0.973508 0.23573,1.156803"
       id="path5292" />
    <path
       style="fill:none;stroke:#070032;stroke-width:0.600001;stroke-linecap:round;stroke-linejoin:round;stroke-dasharray:none;stroke-opacity:1"
       d="m 105.07297,87.339328 c 1.24924,0.172288 2.48035,0.157149 3.73243,0.157149"
       id="path5294" />
    <path
       style="fill:none;stroke:#070032;stroke-width:0.600001;stroke-linecap:round;stroke-linejoin:round;stroke-dasharray:none;stroke-opacity:1"
       d="m 110.92263,83.362537 c 0.54092,1.945833 1.0868,3.89454 1.44059,5.884429"
       id="path5296" />
    <path
       style="fill:none;stroke:#070032;stroke-width:0.600001;stroke-linecap:round;stroke-linejoin:round;stroke-dasharray:none;stroke-opacity:1"
       d="m 114.92135,82.987117 c -1.27221,2.431942 -0.32264,1.241645 -2.12159,2.684664 -0.26125,0.20956 -0.72236,0.720997 -0.67664,0.794485 0.10939,0.175803 0.90734,0.601239 1.08262,0.746466 0.57974,0.480341 0.98456,1.092089 1.47988,1.650088 0.29635,0.333848 0.42261,0.37838 0.65481,0.79012 0.10403,0.184462 0.12232,0.435141 0.14407,0.641696"
       id="path5298" />
    <path
       style="fill:none;stroke:#070032;stroke-width:0.600001;stroke-linecap:round;stroke-linejoin:round;stroke-dasharray:none;stroke-opacity:1"
       d="m 117.30051,85.178499 c 0.005,1.300785 -0.82777,2.905104 0.36233,3.93314 0.39306,0.339532 1.05968,0.482873 1.53663,0.676622"
       id="path5300" />
    <path
       style="fill:none;stroke:#070032;stroke-width:0.600001;stroke-linecap:round;stroke-linejoin:round;stroke-dasharray:none;stroke-opacity:1"
       d="m 116.67188,84.807453 c 1.38383,0.0836 2.38175,-0.07183 3.61021,-0.384151"
       id="path5302" />
    <path
       style="fill:none;stroke:#070032;stroke-width:0.600001;stroke-linecap:round;stroke-linejoin:round;stroke-dasharray:none;stroke-opacity:1"
       d="m 116.47544,87.575053 c 2.37219,-0.03327 1.45882,-0.12867 2.75458,0.04802"
       id="path5304" />
    <path
       style="fill:none;stroke:#070032;stroke-width:0.600001;stroke-linecap:round;stroke-linejoin:round;stroke-dasharray:none;stroke-opacity:1"
       d="m 121.60917,84.488784 c 0.0917,0.921078 0.20582,1.840198 0.27503,2.763236 0.0254,0.339553 -0.002,0.681157 0.009,1.021483 0.009,0.270745 0.0996,0.628213 -0.0393,0.589317 -0.0289,-0.0081 -0.0375,-0.04926 -0.0437,-0.07858 -0.0291,-0.138139 -0.0541,-0.278077 -0.0611,-0.419071 -0.0805,-1.615202 0.0695,-2.604095 1.33145,-3.701775 0.19117,-0.166291 0.59715,-0.519512 0.82942,-0.187709 0.58555,0.836467 -1.19475,1.557425 -1.68068,1.859616 -0.30046,0.186849 -0.70738,0.39292 -0.57624,0.53257 0.76888,0.818774 1.98462,1.035756 2.23074,2.348531"
       id="path5306" />
    <path
       style="fill:none;stroke:#070032;stroke-width:0.600001;stroke-linecap:round;stroke-linejoin:round;stroke-dasharray:none;stroke-opacity:1"
       d="m 96.35959,100.70152 c -0.317976,1.6488 -1.857087,2.83558 -2.043012,4.50936"
       id="path5308" />
    <path
       style="fill:none;stroke:#070032;stroke-width:0.600001;stroke-linecap:round;stroke-linejoin:round;stroke-dasharray:none;stroke-opacity:1"
       d="m 97.437849,99.789175 c 0.320651,2.225595 0.122896,1.051405 1.702514,5.653065 0.09867,0.28745 0.314315,0.5251 0.414716,0.81195"
       id="path5310" />
    <path
       style="fill:none;stroke:#070032;stroke-width:0.600001;stroke-linecap:round;stroke-linejoin:round;stroke-dasharray:none;stroke-opacity:1"
       d="m 94.211806,103.43857 c 3.619462,-0.16938 2.394508,-0.4419 3.762991,-0.11351"
       id="path5312" />
    <path
       style="fill:none;stroke:#070032;stroke-width:0.600001;stroke-linecap:round;stroke-linejoin:round;stroke-dasharray:none;stroke-opacity:1"
       d="m 101.26196,100.87613 c 0.31034,1.1936 0.28657,0.9886 0.49329,2.53188 0.0249,0.18558 0.20441,1.27098 -0.0131,1.50166 -0.14804,0.15702 -0.74111,-1.29698 -0.78577,-1.40999 -0.51262,-1.29711 -0.83491,-2.67472 0.41471,-3.662489 0.4116,-0.32535 0.76682,-0.53762 1.33582,-0.523838 0.16069,0.0039 0.31668,0.102108 0.43218,0.2139 0.63545,0.615067 0.15826,1.742277 -0.13097,2.326707 -0.35667,0.72072 -1.8966,0.8022 -2.56686,0.66353"
       id="path5314" />
    <path
       style="fill:none;stroke:#070032;stroke-width:0.600001;stroke-linecap:round;stroke-linejoin:round;stroke-dasharray:none;stroke-opacity:1"
       d="m 104.42689,106.33712 c 0.40469,-0.54719 0.70112,-1.16506 1.08699,-1.72429 0.0434,-0.0629 0.86557,-1.20934 1.07389,-1.23538 0.18769,-0.0235 0.0495,0.37507 0.0698,0.56313 0.094,0.86963 0.0581,1.76014 0.19208,2.62354 0.0448,0.28855 0.0703,0.33956 0.14843,0.54567"
       id="path5316" />
    <path
       style="fill:none;stroke:#070032;stroke-width:0.600001;stroke-linecap:round;stroke-linejoin:round;stroke-dasharray:none;stroke-opacity:1"
       d="m 92.919644,117.48611 c -0.411586,1.96987 -0.928473,3.97685 -0.973492,6.00229"
       id="path5318" />
    <path
       style="fill:none;stroke:#070032;stroke-width:0.600001;stroke-linecap:round;stroke-linejoin:round;stroke-dasharray:none;stroke-opacity:1"
       d="m 92.662085,117.88335 c 0.22991,0.3856 0.489699,0.75489 0.689735,1.15681 0.204832,0.41155 0.539845,1.83869 0.598059,2.07788 0.368985,1.51611 0.697108,3.0084 1.418764,4.40459"
       id="path5320" />
    <path
       style="fill:none;stroke:#070032;stroke-width:0.600001;stroke-linecap:round;stroke-linejoin:round;stroke-dasharray:none;stroke-opacity:1"
       d="m 90.540487,121.17043 c 4.070519,-0.25268 2.58164,-0.11982 4.474557,-0.29685"
       id="path5322" />
    <path
       style="fill:none;stroke:#070032;stroke-width:0.600001;stroke-linecap:round;stroke-linejoin:round;stroke-dasharray:none;stroke-opacity:1"
       d="m 97.079889,118.50322 c 0.213905,1.30814 0.476618,2.60923 0.641712,3.92442 0.0609,0.48511 0.0962,0.9857 0.0087,1.46674 -0.0069,0.0377 -0.0055,-0.0772 -0.01746,-0.11351 -0.03624,-0.10982 -0.07203,-0.22106 -0.1266,-0.32303 -0.145304,-0.27151 -0.318003,-0.5275 -0.471467,-0.79448 -0.781743,-1.36004 -2.017815,-4.65735 0.606793,-4.86732 0.66453,-0.0532 1.53711,0.0824 1.894594,0.72465 0.524159,0.94168 -0.275614,1.88834 -1.152472,2.1259 -0.291616,0.079 -0.567526,0.0815 -0.851255,-0.0131"
       id="path5324" />
    <path
       style="fill:none;stroke:#070032;stroke-width:0.600001;stroke-linecap:round;stroke-linejoin:round;stroke-dasharray:none;stroke-opacity:1"
       d="m 100.2972,122.79432 c 0.49329,-0.38415 0.86908,-1.01889 1.47988,-1.15244 0.26373,-0.0577 0.16894,0.52478 0.15715,0.79449 -0.0159,0.36416 -0.83159,3.09997 -1.39693,3.02515 -0.26365,-0.0349 0.0826,-0.78396 0.46273,-0.82941 0.49352,-0.059 1.01302,0.14425 1.50171,0.18334 0.35587,0.0285 0.71324,0.034 1.06952,0.0568"
       id="path5326" />
    <path
       style="fill:none;stroke:#070032;stroke-width:0.600001;stroke-linecap:round;stroke-linejoin:round;stroke-dasharray:none;stroke-opacity:1"
       d="m 90.138873,133.95104 c -0.215066,1.72788 -0.948552,3.29292 -1.558459,4.89788"
       id="path5328" />
    <path
       style="fill:none;stroke:#070032;stroke-width:0.600001;stroke-linecap:round;stroke-linejoin:round;stroke-dasharray:none;stroke-opacity:1"
       d="m 90.2742,133.32244 c 0.241133,0.9913 0.754393,3.22547 1.117547,4.33911 0.232055,0.71162 0.560266,1.4198 0.825063,2.1259"
       id="path5330" />
    <path
       style="fill:none;stroke:#070032;stroke-width:0.600001;stroke-linecap:round;stroke-linejoin:round;stroke-dasharray:none;stroke-opacity:1"
       d="m 87.445407,137.30796 c 2.517598,-0.27893 1.021487,-0.15581 4.496379,-0.25319"
       id="path5332" />
    <path
       style="fill:none;stroke:#070032;stroke-width:0.600001;stroke-linecap:round;stroke-linejoin:round;stroke-dasharray:none;stroke-opacity:1"
       d="m 94.220537,134.21296 c 0.170251,1.24702 0.382217,2.48906 0.510754,3.74106 0.02901,0.28257 -0.02653,0.56748 -0.03929,0.85124 -0.0049,0.10999 0.01442,0.42094 -0.04365,0.3274 -0.692201,-1.1152 -1.40403,-3.34834 -0.698471,-4.60103 0.06839,-0.12143 0.191534,-0.20394 0.270658,-0.31867 0.2951,-0.42788 0.550264,-0.94708 1.17866,-0.98656 0.151609,-0.01 0.312865,0.008 0.449641,0.0742 0.350271,0.16926 0.656929,1.45325 0.454004,1.78105 -0.385593,0.62286 -1.757106,0.54139 -2.453365,0.58495"
       id="path5334" />
    <path
       style="fill:none;stroke:#070032;stroke-width:0.600001;stroke-linecap:round;stroke-linejoin:round;stroke-dasharray:none;stroke-opacity:1"
       d="m 98.158143,137.42146 c 0.269203,-0.15861 0.513966,-0.36904 0.807606,-0.47581 0.229851,-0.0836 0.485203,-0.0637 0.729025,-0.083 0.684556,-0.054 -0.944036,1.34993 -0.982221,1.52349 -0.129122,0.5869 0.647002,0.55784 0.685369,1.06514 0.03268,0.4321 -1.112155,0.7267 -1.410028,0.76392"
       id="path5336" />
    <path
       style="fill:none;stroke:#070032;stroke-width:0.600001;stroke-linecap:round;stroke-linejoin:round;stroke-dasharray:none;stroke-opacity:1"
       d="m 93.081164,150.11139 c -0.238643,0.71446 -0.485627,1.42618 -0.71593,2.14337 -0.139343,0.43393 -0.241472,0.87973 -0.392888,1.30959 -0.458441,1.3015 -1.054529,2.50791 -1.37074,3.85892"
       id="path5338" />
    <path
       style="fill:none;stroke:#070032;stroke-width:0.600001;stroke-linecap:round;stroke-linejoin:round;stroke-dasharray:none;stroke-opacity:1"
       d="m 93.255779,150.50864 c 1.675897,1.5154 -0.04822,5.75267 1.72434,7.72222"
       id="path5340" />
    <path
       style="fill:none;stroke:#070032;stroke-width:0.600001;stroke-linecap:round;stroke-linejoin:round;stroke-dasharray:none;stroke-opacity:1"
       d="m 90.78932,155.32793 c 0.466632,-1.18547 0.0149,-0.42086 2.654173,-0.23136"
       id="path5342" />
    <path
       style="fill:none;stroke:#070032;stroke-width:0.600001;stroke-linecap:round;stroke-linejoin:round;stroke-dasharray:none;stroke-opacity:1"
       d="m 95.787722,151.6829 c 0.01746,0.27356 0.03493,0.54712 0.05239,0.82068 0.04656,0.5413 0.102605,1.08186 0.139692,1.62389 0.01968,0.28762 0.02553,0.57609 0.03056,0.86434 0.0052,0.29534 -0.0067,0.59085 0,0.88615 0.0021,0.0873 0.05593,0.34453 0.04802,0.25756 -0.122153,-1.34363 -1.091819,-2.91998 -0.838161,-4.24308 0.06119,-0.31916 0.185719,-0.62642 0.331772,-0.91671 0.276307,-0.54918 1.229191,-1.31797 1.781093,-0.60241 0.603747,0.78277 -0.140565,3.51496 -1.38384,3.19976 -0.23799,-0.0603 -0.451834,-0.2411 -0.637352,-0.39288"
       id="path5344" />
    <path
       style="fill:none;stroke:#070032;stroke-width:0.600001;stroke-linecap:round;stroke-linejoin:round;stroke-dasharray:none;stroke-opacity:1"
       d="m 100.54603,154.38502 c -0.24738,0.3274 -0.5502,0.6195 -0.742123,0.9822 -0.01455,0.0275 -0.366898,1.10542 -0.275019,1.30959 0.0793,0.17622 0.654012,0.0831 0.694102,0.0786 0.89685,-0.10047 1.77429,-0.4147 2.68036,-0.4147"
       id="path5346" />
    <path
       style="fill:none;stroke:#070032;stroke-width:0.600001;stroke-linecap:round;stroke-linejoin:round;stroke-dasharray:none;stroke-opacity:1"
       d="m 101.68104,155.07911 c -0.21169,1.17183 -0.1569,0.53419 0.0131,2.29179 0.0446,0.46065 0.0951,0.88226 0.23574,1.31831"
       id="path5348" />
    <path
       style="fill:none;stroke:#070032;stroke-width:0.600001;stroke-linecap:round;stroke-linejoin:round;stroke-dasharray:none;stroke-opacity:1"
       d="m -10.795921,117.56626 c 0.629005,0.341 1.2231007,0.37016 1.9146767,0.25174 0.209075,-0.0358 0.481088,-0.11628 0.489306,-0.0957 0.02595,0.0649 -0.01506,0.17985 -0.01418,0.24465 0.0027,0.19704 0.06046,0.38951 0.0851,0.58502 0.02555,0.20275 0.06828,0.78635 0.06382,0.96441 -0.0086,0.34211 -0.02464,0.68471 -0.06382,1.02468 -0.0644,0.55883 -0.355498,2.12601 -0.776511,2.53156 -0.04226,0.0407 -0.132584,0.0702 -0.173738,0.0284 -0.250007,-0.2541 -0.473902,-0.94582 -0.634681,-1.28706"
       id="path6310" />
    <path
       style="fill:none;stroke:#070032;stroke-width:0.600001;stroke-linecap:round;stroke-linejoin:round;stroke-dasharray:none;stroke-opacity:1"
       d="m -7.3246823,120.11201 c 0.03428,0.25056 0.07153,0.50072 0.102827,0.75167 0.02899,0.23247 0.04498,0.46655 0.07801,0.69848 0.02979,0.20918 0.234651,0.95912 0.453849,0.35456 0.130873,-0.36094 0.106076,-0.90029 0.397119,-1.19132 0.218935,-0.21893 0.525211,-0.0515 0.61695,0.2021 0.07069,0.19543 0.108438,0.40178 0.145376,0.6063 0.07367,0.40787 0.08013,0.84116 0.124098,1.2516"
       id="path6312" />
    <path
       style="fill:none;stroke:#070032;stroke-width:0.600001;stroke-linecap:round;stroke-linejoin:round;stroke-dasharray:none;stroke-opacity:1"
       d="m -4.0910025,120.52685 c 0.047275,0.56966 0.1140611,1.13803 0.1418262,1.70898 0.01837,0.37775 0.00435,0.75647 -0.00354,1.13459 -0.00275,0.1315 -0.017134,0.26251 -0.028367,0.39356 -0.1194702,1.39377 -0.1578055,-1.1201 -0.1453726,-1.25159 0.054222,-0.57347 0.5223276,-2.3235 1.404097,-2.15573 0.1446839,0.0275 0.1379212,0.26404 0.1701935,0.40774 0.1108628,0.49364 -0.012388,1.09494 0.060277,1.6168"
       id="path6314" />
    <path
       style="fill:none;stroke:#070032;stroke-width:0.600001;stroke-linecap:round;stroke-linejoin:round;stroke-dasharray:none;stroke-opacity:1"
       d="m -1.0417021,120.53748 c 0.27183727,0.64885 0.38546177,1.3898 0.81551077,1.94654 0.110976,0.14366 0.338311,-0.17326 0.436121,-0.3262 0.362973,-0.56754 0.01121,-1.43753 0.202107,-1.95717"
       id="path6316" />
    <path
       style="fill:none;stroke:#070032;stroke-width:0.600001;stroke-linecap:round;stroke-linejoin:round;stroke-dasharray:none;stroke-opacity:1"
       d="m 2.1210646,116.8926 c 0.02247,1.92944 -0.03425,2.08335 0.191468,3.89662 0.03227,0.25923 0.08755,0.51548 0.148919,0.7694 0.03337,0.13804 0.0927,0.26854 0.134737,0.4042 0.01002,0.0323 0.03545,0.0686 0.02127,0.0993 -0.09546,0.20682 -0.780295,-0.98931 -0.854514,-1.10977 -0.129658,-0.21044 -0.28139,-0.4375 -0.429029,-0.63821 -0.04759,-0.0647 -0.211301,-0.19638 -0.13119,-0.2021 0.108823,-0.008 0.196697,0.0969 0.301384,0.12764 0.131251,0.0385 0.264784,0.0729 0.400665,0.0886 0.635206,0.0734 1.27342,-0.12724 1.900495,-0.18792"
       id="path6318" />
    <path
       style="fill:none;stroke:#070032;stroke-width:0.600001;stroke-linecap:round;stroke-linejoin:round;stroke-dasharray:none;stroke-opacity:1"
       d="m 5.9220513,121.55507 c 0.502843,0.88695 1.631493,1.19304 2.070689,2.10964"
       id="path6320" />
    <path
       style="fill:none;stroke:#070032;stroke-width:0.600001;stroke-linecap:round;stroke-linejoin:round;stroke-dasharray:none;stroke-opacity:1"
       d="m 5.5852113,123.62216 c 0.851984,-0.54802 1.215587,-1.62587 2.067142,-2.16991"
       id="path6322" />
  </g>
</svg>
