<?xml version="1.0" encoding="UTF-8" standalone="no"?>
<!-- Created with Inkscape (http://www.inkscape.org/) -->

<svg
   width="183.62579mm"
   height="107.38393mm"
   viewBox="0 0 183.62579 107.38393"
   version="1.1"
   id="svg5"
   inkscape:version="1.2.2 (b0a8486541, 2022-12-01)"
   sodipodi:docname="mesh_2.svg"
   inkscape:export-filename="mesh_2.png"
   inkscape:export-xdpi="200"
   inkscape:export-ydpi="200"
   xmlns:inkscape="http://www.inkscape.org/namespaces/inkscape"
   xmlns:sodipodi="http://sodipodi.sourceforge.net/DTD/sodipodi-0.dtd"
   xmlns="http://www.w3.org/2000/svg"
   xmlns:svg="http://www.w3.org/2000/svg">
  <sodipodi:namedview
     id="namedview7"
     pagecolor="#ffffff"
     bordercolor="#000000"
     borderopacity="0.25"
     inkscape:showpageshadow="2"
     inkscape:pageopacity="0.0"
     inkscape:pagecheckerboard="0"
     inkscape:deskcolor="#d1d1d1"
     inkscape:document-units="mm"
     showgrid="false"
     inkscape:zoom="1.6156801"
     inkscape:cx="263.04713"
     inkscape:cy="191.86967"
     inkscape:window-width="1920"
     inkscape:window-height="1048"
     inkscape:window-x="0"
     inkscape:window-y="726"
     inkscape:window-maximized="1"
     inkscape:current-layer="layer1" />
  <defs
     id="defs2" />
  <g
     inkscape:label="Layer 1"
     inkscape:groupmode="layer"
     id="layer1"
     transform="translate(-11.634246,-54.696897)">
    <path
       style="fill:#fd44ff;stroke:#000000;stroke-width:1.065"
       d="m 49.254939,59.432393 c -0.545381,3.363161 -0.355368,1.01424 0.244559,5.933517 0.157732,1.293346 0.289428,2.589866 0.411882,3.88703 0.130697,1.384451 0.24552,2.77046 0.347525,4.157322 0.320789,4.361378 0.202489,3.852513 0.501973,7.06616 0.373073,4.003273 -0.0077,-0.509645 0.231688,2.458355 0.02225,0.275823 -0.167161,0.763709 0.102965,0.823741 0.09519,0.02114 1.119116,-1.498547 1.943568,-1.660353 0.72689,-0.142656 1.479037,-0.09954 2.213867,-0.193067 3.000359,-0.381854 4.320463,-0.831421 7.671303,-0.656418 1.366718,0.07138 8.241392,2.332403 9.061391,0.926709 0.317204,-0.543767 0.105349,-2.105033 0.128712,-2.715774 0.145717,-3.809145 -0.515006,-7.431386 -1.119793,-11.171999 -0.378804,-2.342901 -0.818111,-4.690134 -1.145554,-7.040414 -0.23886,-1.714447 0.01897,-4.373015 -1.428712,-5.650357 -0.762096,-0.672423 -2.286471,-0.214993 -3.192087,-0.205936 -0.761955,0.0076 -1.545924,-0.157628 -2.303957,-0.102965 -2.451291,0.176768 -4.691507,1.178949 -7.066354,1.750449 -3.005821,0.723341 -5.167707,-0.449943 -7.722783,1.801937"
       id="path799" />
    <path
       style="fill:#fd44ff;stroke:#000000;stroke-width:1.065"
       d="m 130.48574,57.553232 c 0.98081,6.135375 -0.1625,12.381283 -1.04256,18.456963 -0.35716,2.465742 -0.35887,4.902859 -0.56634,7.375067 -0.0333,0.396306 -0.083,0.911461 -0.19307,1.312839 -0.0378,0.137726 -0.33267,0.259403 -0.23169,0.360386 1.46591,1.465874 8.4977,0.278061 10.24556,0.115837 1.66619,-0.154643 3.35151,-0.01995 5.01982,0 1.74568,0.02088 3.55213,-0.159194 5.2901,0 0.61615,0.05644 3.51747,1.380929 3.65544,1.261356 0.0528,-0.04573 0.20175,-2.899738 0.2317,-3.153388 0.48888,-4.140957 0.93008,-8.213276 0.68216,-12.394743 -0.18885,-3.185414 -0.32266,-3.377223 -0.42474,-6.100836 -0.0327,-0.873533 0.13452,-6.630133 -0.63069,-7.336443 -0.0696,-0.06427 -3.23828,-0.498306 -3.3208,-0.501973 -2.92457,-0.129979 -6.00866,-0.499592 -8.90694,-0.01286 -2.43845,0.409504 -4.79728,0.906275 -7.25943,1.197002 -0.44771,0.05286 -0.899,0.29297 -1.33861,0.193061 -0.46655,-0.106035 -0.8066,-0.51484 -1.20991,-0.772258 z"
       id="path801" />
    <path
       style="fill:#fd44ff;stroke:#000000;stroke-width:1.065"
       d="m 49.705439,137.30173 c -0.07707,4.18661 -0.116422,-0.13416 0.489112,5.53452 0.109288,1.02311 0.08432,3.60243 0.03861,4.59493 -0.08846,1.92077 -0.31909,4.5748 -0.476237,6.52558 -0.01005,0.12484 -0.430289,4.40039 -0.244562,4.36326 2.141325,-0.42815 3.720517,2.71587 6.229717,3.05042 2.289696,0.30528 4.466455,-0.21202 6.718827,-0.51485 1.89979,-0.25542 3.956341,-0.37375 5.766342,-1.05541 0.602112,-0.22676 1.256284,-0.67068 1.827718,-0.93958 1.081217,-0.5088 1.668251,0.0528 2.651495,0.45048 0.61304,0.24796 1.054497,0.13349 1.673273,0.50197 0.471178,0.28058 1.026446,1.01812 1.608907,0.37326 0.759982,-0.8414 0.123325,-2.87004 0.03862,-3.62962 -0.287906,-2.58175 -0.476573,-5.21564 -0.347525,-7.81267 0.12958,-2.60773 0.849953,-5.16876 1.209897,-7.74833 0.133276,-0.95513 0.708726,-3.24733 0.141584,-4.18306 -0.370295,-0.61095 -3.850669,-0.27462 -4.607925,-0.33464 -2.127403,-0.16863 -4.231447,-0.375 -6.371302,-0.3089 -2.11941,0.0654 -4.202445,0.42452 -6.319805,0.51483 -1.803429,0.0769 -3.592163,0.10445 -5.393082,0.23169 -2.032963,0.14362 -2.597507,-0.2732 -4.633661,0.38612 z"
       id="path803" />
    <path
       style="fill:#fd44ff;stroke:#000000;stroke-width:1.065"
       d="m 134.34714,135.35822 c -0.55888,0.85354 -0.76285,0.83818 -0.79802,1.67323 -0.0564,1.33969 0.48611,3.07281 0.6693,4.28602 0.28019,1.85558 0.47671,3.84383 0.50199,5.7147 0.0538,3.98061 -0.0161,4.135 -0.43763,7.68397 -0.14991,1.262 -0.48911,2.64666 -0.48911,3.92564 0,0.31575 0.44558,-0.44999 0.69505,-0.64354 0.48463,-0.376 1.13854,-0.29073 1.69902,-0.19307 1.31003,0.22826 2.59122,0.61697 3.9,0.86236 1.69179,0.3172 3.39563,0.52205 5.09704,0.77226 1.57354,0.2314 3.11027,0.54892 4.60793,1.09403 1.00481,0.36573 1.97224,0.91199 3.06336,1.00394 2.08161,0.17541 2.84652,-1.75834 4.59507,-2.27817 0.12288,-0.0365 2.04081,-0.17362 2.22673,-0.16732 0.25671,0.009 0.7383,0.48232 0.96534,0.38613 0.51666,-0.21892 0.4696,-0.42638 0.46337,-0.84948 -0.0319,-2.16753 -0.74845,-4.42102 -1.06832,-6.55132 -0.34492,-2.2971 -0.40219,-3.38475 -0.4891,-5.88204 -0.0669,-1.92118 0.008,-3.86629 0.19307,-5.77906 0.10064,-1.03991 0.63185,-3.10692 0.36038,-4.1187 -0.16838,-0.62759 -1.13498,-0.94941 -1.67327,-1.20988 -0.48518,-0.23477 -0.83354,-0.66956 -1.3,-0.9267 -1.77732,-0.97977 -4.45591,-0.76252 -6.34554,-0.47622 -2.42824,0.36789 -4.74042,0.78087 -7.20794,0.56631 -2.0356,-0.177 -3.99886,-0.22958 -6.03663,-0.24455 -0.89911,-0.007 -2.13823,-0.3378 -3.01189,-0.0386 -0.55632,0.19052 -0.19616,1.15346 -0.1802,1.39007 z"
       id="path805" />
    <path
       style="fill:none;stroke:#16ff00;stroke-width:1.065;stroke-opacity:1"
       d="m 57.286638,71.325168 c 0.336963,-0.779889 3.350959,-4.875057 3.217823,-5.096905 -0.09366,-0.156075 -0.111755,0.361863 -0.07723,0.540581 0.153506,0.794592 0.374364,1.249577 0.643569,2.097969 0.438756,1.382723 0.714526,2.750762 0.81089,4.195934"
       id="path1988" />
    <path
       style="fill:none;stroke:#16ff00;stroke-width:1.065;stroke-opacity:1"
       d="m 139.30259,70.565779 c -0.64506,-0.331922 2.83181,-5.03678 3.34654,-3.46229 0.84791,2.593597 -1.20364,5.782644 -2.87031,7.645352 -0.30566,0.341617 -0.58402,0.301327 -0.90098,0.527712 -0.40302,0.287856 0.98643,-0.09038 1.48021,-0.128709 0.87963,-0.06828 1.76861,-0.102971 2.65147,-0.102971"
       id="path1990" />
    <path
       style="fill:none;stroke:#16ff00;stroke-width:1.065;stroke-opacity:1"
       d="m 142.40457,144.26493 c 1.20389,-1.48595 1.78264,-1.90753 3.52675,-1.20988 0.005,0.002 0.71385,0.17949 0.75941,0.43762 0.1238,0.7014 -1.88187,1.62131 -1.6218,2.9217 0.19956,0.99786 3.76569,1.41132 3.73268,1.82768 -0.16855,2.12604 -3.08127,4.19596 -5.09704,3.82267"
       id="path1992" />
    <path
       style="fill:none;stroke:#16ff00;stroke-width:1.065;stroke-opacity:1"
       d="m 59.848019,145.50053 c -0.573103,0.95907 -0.902671,1.9731 -1.248508,3.02469 -0.02019,0.0614 -0.703987,2.15957 -0.52773,2.2138 0.569386,0.1752 1.283441,-0.0713 1.840606,-0.15446 0.813771,-0.12145 1.385125,-0.15645 2.213853,-0.27028 1.310717,-0.18003 3.170269,-1.00079 4.324768,-0.0772"
       id="path1994" />
    <path
       style="fill:none;stroke:#16ff00;stroke-width:1.065;stroke-opacity:1"
       d="m 63.374759,147.64998 c -1.171602,1.68546 -1.042578,3.81801 -1.042578,5.79194"
       id="path1996" />
    <path
       style="fill:none;stroke:#16ff00;stroke-width:1.065"
       d="m 68.824089,114.04265 c 1.14963,-1.43395 1.65107,-3.23121 2.463752,-4.85653 0.762079,-1.52413 1.208098,-3.09274 1.582155,-4.73848 0.05687,-0.25021 0.362088,-0.59488 0.362088,-0.82648 0,-0.19678 -0.370025,-0.16018 -0.566743,-0.16529 -0.241242,-0.006 -0.708342,0.19232 -0.865857,0.23614 -0.596127,0.16584 -1.192225,0.20191 -1.802555,0.24401 -0.45853,0.0316 -0.8934,0.11167 -1.35388,0.063 -0.33493,-0.0354 -0.63306,-0.16247 -0.97606,-0.15742 -0.27055,0.004 -0.52107,0.1784 -0.79502,0.14956 -1.14422,-0.12047 -2.35459,-0.51164 -3.47916,-0.51164 -0.0735,0 -0.0229,0.15059 0,0.2204 0.36195,1.10393 1.01114,1.69167 1.67661,2.58963 0.76346,1.03018 1.07927,2.16846 1.55854,3.32165 0.17106,0.41161 0.37828,0.80822 0.48803,1.24365 0.13758,0.54587 0.12578,1.25598 0.43293,1.74741 0.31735,0.50775 0.85807,1.02966 1.27517,1.44043 z"
       id="path1669" />
    <path
       style="fill:none;stroke:#16ff00;stroke-width:1.065"
       d="m 150.44739,116.50373 c 1.14963,-1.43395 1.65107,-3.23121 2.46376,-4.85653 0.76207,-1.52413 1.20809,-3.09274 1.58215,-4.73848 0.0569,-0.25021 0.36209,-0.59488 0.36209,-0.82648 0,-0.19678 -0.37003,-0.16018 -0.56674,-0.16529 -0.24125,-0.006 -0.70835,0.19232 -0.86586,0.23614 -0.59613,0.16584 -1.19223,0.20191 -1.80256,0.24401 -0.45853,0.0316 -0.8934,0.11167 -1.35388,0.063 -0.33493,-0.0354 -0.63306,-0.16247 -0.97606,-0.15742 -0.27055,0.004 -0.52107,0.1784 -0.79502,0.14956 -1.14422,-0.12047 -2.35459,-0.51164 -3.47916,-0.51164 -0.0735,0 -0.0229,0.15059 0,0.2204 0.36195,1.10393 1.01114,1.69167 1.67661,2.58963 0.76346,1.03018 1.07927,2.16846 1.55854,3.32165 0.17106,0.41161 0.37828,0.80822 0.48803,1.24365 0.13758,0.54587 0.12578,1.25598 0.43293,1.74741 0.31735,0.50775 0.85807,1.02966 1.27517,1.44043 z"
       id="path1669-35" />
    <path
       style="fill:none;stroke:#16ff00;stroke-width:1.065"
       d="m 83.832908,101.97641 c 1.82687,-0.20105 3.45229,-1.11733 5.17623,-1.69195 1.61658,-0.538845 3.04114,-1.332635 4.46936,-2.231855 0.21716,-0.13669 0.67668,-0.16461 0.84044,-0.32837 0.13915,-0.13915 -0.14838,-0.37492 -0.28387,-0.51763 -0.16634,-0.17483 -0.63687,-0.36488 -0.77923,-0.44527 -0.53879,-0.304269 -0.9858,-0.700269 -1.44714,-1.102069 -0.34658,-0.30188 -0.71069,-0.55276 -1.00189,-0.91279 -0.2118,-0.26186 -0.33275,-0.56252 -0.57886,-0.80149 -0.19414,-0.18848 -0.4946,-0.2423 -0.66792,-0.45641 -0.7239,-0.89427 -1.30316,-2.02673 -2.09836,-2.82192 -0.052,-0.052 -0.12267,0.0903 -0.15584,0.15585 -0.52466,1.03653 -0.48121,1.91117 -0.6456,3.01669 -0.1886,1.26829 -0.77018,2.29649 -1.24671,3.450809 -0.1701,0.41201 -0.30401,0.83898 -0.53431,1.22448 -0.2887,0.48328 -0.79917,0.97706 -0.92947,1.541735 -0.13464,0.58343 -0.12134,1.33482 -0.11686,1.92022 z"
       id="path1669-35-9" />
    <path
       style="fill:none;stroke:#16ff00;stroke-width:1.065"
       d="m 116.84443,112.29562 c -1.82687,0.20105 -3.45229,1.11733 -5.17623,1.69195 -1.61658,0.53885 -3.04114,1.33264 -4.46935,2.23186 -0.21716,0.13669 -0.67668,0.16461 -0.84044,0.32837 -0.13915,0.13915 0.14838,0.37492 0.28387,0.51763 0.16634,0.17483 0.63686,0.36488 0.77922,0.44527 0.53879,0.30427 0.9858,0.70027 1.44714,1.10207 0.34658,0.30188 0.71069,0.55276 1.00189,0.91279 0.2118,0.26186 0.33275,0.56252 0.57886,0.80149 0.19414,0.18848 0.4946,0.2423 0.66792,0.45641 0.7239,0.89427 1.30316,2.02673 2.09836,2.82192 0.052,0.052 0.12267,-0.0903 0.15584,-0.15585 0.52466,-1.03653 0.48121,-1.91117 0.6456,-3.01669 0.1886,-1.26829 0.77018,-2.29649 1.24671,-3.45081 0.1701,-0.41201 0.30401,-0.83898 0.53431,-1.22448 0.2887,-0.48328 0.79917,-0.97706 0.92947,-1.54174 0.13464,-0.58343 0.12134,-1.33482 0.11686,-1.92022 z"
       id="path1669-35-9-1" />
    <path
       style="fill:none;stroke:#16ff00;stroke-width:1.065"
       d="m 87.151804,117.54199 c 0.20105,1.82687 1.11733,3.45229 1.69195,5.17623 0.53885,1.61658 1.33264,3.04114 2.23186,4.46936 0.13669,0.21716 0.16461,0.67668 0.32837,0.84044 0.13915,0.13915 0.37492,-0.14838 0.51763,-0.28387 0.17483,-0.16634 0.36488,-0.63687 0.44527,-0.77923 0.30427,-0.53879 0.70027,-0.9858 1.10207,-1.44714 0.30188,-0.34658 0.55276,-0.71069 0.91279,-1.00189 0.26186,-0.2118 0.56252,-0.33275 0.80149,-0.57886 0.18848,-0.19414 0.2423,-0.4946 0.45641,-0.66792 0.89427,-0.7239 2.02673,-1.30316 2.82191,-2.09836 0.052,-0.052 -0.0903,-0.12267 -0.15585,-0.15584 -1.03652,-0.52466 -1.91116,-0.48121 -3.01668,-0.6456 -1.26829,-0.1886 -2.29649,-0.77018 -3.45081,-1.24671 -0.41201,-0.1701 -0.83898,-0.30401 -1.22448,-0.53431 -0.48328,-0.2887 -0.97706,-0.79917 -1.54174,-0.92947 -0.58343,-0.13464 -1.33482,-0.12134 -1.92022,-0.11686 z"
       id="path1669-35-9-2" />
    <path
       style="fill:none;stroke:#16ff00;stroke-width:1.065"
       d="m 114.31129,101.70384 c -0.20105,-1.826865 -1.11733,-3.452285 -1.69195,-5.176225 -0.53885,-1.61657 -1.33264,-3.04113 -2.23186,-4.46934 -0.13669,-0.21716 -0.16461,-0.67668 -0.32837,-0.84044 -0.13915,-0.13916 -0.37492,0.14838 -0.51763,0.28387 -0.17483,0.16634 -0.36488,0.63686 -0.44527,0.77922 -0.30427,0.53879 -0.70027,0.9858 -1.10207,1.44714 -0.30188,0.34658 -0.55276,0.71069 -0.91279,1.00189 -0.26186,0.2118 -0.56252,0.33275 -0.80149,0.57886 -0.18848,0.19414 -0.2423,0.49459 -0.45641,0.66791 -0.89427,0.7239 -2.02673,1.30316 -2.82192,2.09836 -0.052,0.052 0.0903,0.12267 0.15585,0.15584 1.03653,0.52466 1.91117,0.48121 3.01669,0.6456 1.26829,0.1886 2.29649,0.77018 3.45081,1.246705 0.41201,0.1701 0.83898,0.30401 1.22448,0.53431 0.48328,0.2887 0.97706,0.79917 1.54174,0.92947 0.58343,0.13464 1.33482,0.12134 1.92022,0.11686 z"
       id="path1669-35-9-1-7" />
    <path
       style="fill:none;stroke:#16ff00;stroke-width:1.065"
       d="m 91.2942,61.420471 c 1.43395,1.14965 3.23121,1.65109 4.85653,2.46377 1.524127,0.76208 3.092747,1.2081 4.73848,1.58214 0.25021,0.0569 0.59488,0.36209 0.82648,0.3621 0.19679,0 0.16018,-0.37002 0.1653,-0.56675 0.006,-0.24124 -0.19232,-0.70834 -0.23615,-0.86585 -0.16583,-0.59613 -0.20191,-1.19223 -0.244,-1.80256 -0.0316,-0.45852 -0.11167,-0.8934 -0.063,-1.35389 0.0354,-0.33491 0.16247,-0.633044 0.15742,-0.976046 -0.004,-0.270546 -0.17839,-0.521075 -0.14956,-0.79502 0.12048,-1.144225 0.51164,-2.354601 0.51164,-3.47917 -2e-5,-0.07352 -0.15058,-0.0229 -0.22039,4e-6 -1.10393,0.361962 -1.691673,1.011151 -2.589643,1.676617 -1.03018,0.763462 -2.16846,1.079275 -3.321647,1.55854 -0.41161,0.171063 -0.80822,0.378281 -1.24365,0.488031 -0.54586,0.137567 -1.25598,0.125773 -1.74741,0.432933 -0.50775,0.317349 -1.02966,0.858071 -1.44043,1.275161 z"
       id="path1669-3" />
    <path
       style="fill:none;stroke:#16ff00;stroke-width:1.065"
       d="m 103.18353,75.038688 c -1.43395,-1.14965 -3.231209,-1.65109 -4.856529,-2.46377 -1.524127,-0.76208 -3.092747,-1.2081 -4.738477,-1.58214 -0.25021,-0.0569 -0.59488,-0.36209 -0.82648,-0.3621 -0.19679,0 -0.16018,0.37002 -0.1653,0.56675 -0.006,0.24124 0.19232,0.70834 0.23615,0.86585 0.16583,0.59613 0.20191,1.19223 0.244,1.80256 0.0316,0.45852 0.11167,0.8934 0.063,1.35389 -0.0354,0.33491 -0.16247,0.63304 -0.15742,0.97605 0.004,0.27054 0.17839,0.52107 0.14956,0.79502 -0.12048,1.14422 -0.51164,2.35459 -0.51164,3.47916 2e-5,0.0735 0.15058,0.0229 0.22039,0 1.10393,-0.36196 1.69167,-1.01115 2.58964,-1.67662 1.03018,-0.76346 2.168457,-1.07927 3.321647,-1.55854 0.41161,-0.17106 0.80822,-0.37828 1.24365,-0.48803 0.545859,-0.13756 1.255979,-0.12577 1.747409,-0.43293 0.50775,-0.31735 1.02966,-0.85807 1.44043,-1.27516 z"
       id="path1669-3-5" />
    <path
       style="fill:none;stroke:#16ff00;stroke-width:1.065"
       d="m 100.14121,143.7284 c 1.43395,1.14965 3.23121,1.65109 4.85653,2.46377 1.52413,0.76209 3.09275,1.20811 4.73848,1.58215 0.25021,0.0569 0.59488,0.36209 0.82648,0.3621 0.19679,0 0.16018,-0.37002 0.1653,-0.56675 0.006,-0.24124 -0.19232,-0.70834 -0.23615,-0.86585 -0.16583,-0.59614 -0.20191,-1.19224 -0.244,-1.80257 -0.0316,-0.45852 -0.11167,-0.8934 -0.063,-1.35389 0.0354,-0.33491 0.16247,-0.63304 0.15742,-0.97604 -0.004,-0.27055 -0.17839,-0.52108 -0.14956,-0.79502 0.12048,-1.14423 0.51164,-2.3546 0.51164,-3.47917 -2e-5,-0.0735 -0.15058,-0.0229 -0.22039,0 -1.10393,0.36196 -1.69167,1.01115 -2.58964,1.67662 -1.03018,0.76346 -2.16846,1.07927 -3.32165,1.55854 -0.41161,0.17106 -0.80822,0.37828 -1.24365,0.48803 -0.54586,0.13757 -1.25598,0.12577 -1.74741,0.43293 -0.50775,0.31735 -1.02966,0.85807 -1.44043,1.27516 z"
       id="path1669-3-6" />
    <path
       style="fill:none;stroke:#16ff00;stroke-width:1.065"
       d="m 111.68531,155.82068 c -1.43395,-1.14965 -3.23121,-1.65109 -4.85653,-2.46377 -1.52413,-0.76208 -3.09275,-1.2081 -4.73848,-1.58214 -0.25021,-0.0569 -0.59488,-0.36209 -0.82648,-0.3621 -0.19679,0 -0.16018,0.37002 -0.1653,0.56675 -0.006,0.24124 0.19232,0.70834 0.23615,0.86585 0.16583,0.59613 0.20191,1.19223 0.244,1.80256 0.0316,0.45852 0.11167,0.8934 0.063,1.35389 -0.0354,0.33491 -0.16247,0.63304 -0.15742,0.97605 0.004,0.27054 0.17839,0.52107 0.14956,0.79502 -0.12048,1.14422 -0.51164,2.35459 -0.51164,3.47916 2e-5,0.0735 0.15058,0.0229 0.22039,0 1.10393,-0.36196 1.69167,-1.01115 2.58964,-1.67662 1.03018,-0.76346 2.16846,-1.07927 3.32165,-1.55854 0.41161,-0.17106 0.80822,-0.37828 1.24365,-0.48803 0.54586,-0.13756 1.25598,-0.12577 1.74741,-0.43293 0.50775,-0.31735 1.02966,-0.85807 1.44043,-1.27516 z"
       id="path1669-3-5-2" />
    <path
       style="fill:none;stroke:#16ff00;stroke-width:1.065"
       d="m 55.94712,103.06934 c -1.14964,1.43395 -1.65108,3.23121 -2.46376,4.85653 -0.76208,1.52413 -1.20809,3.09274 -1.58215,4.73848 -0.0569,0.25021 -0.36209,0.59488 -0.36209,0.82648 0,0.19678 0.37003,0.16018 0.56674,0.16529 0.24125,0.006 0.70835,-0.19232 0.86586,-0.23614 0.59613,-0.16584 1.19222,-0.20191 1.80256,-0.24401 0.45852,-0.0316 0.8934,-0.11167 1.35388,-0.063 0.33493,0.0354 0.63305,0.16247 0.97606,0.15742 0.27054,-0.004 0.52107,-0.1784 0.79501,-0.14956 1.14423,0.12047 2.3546,0.51164 3.47917,0.51164 0.0735,0 0.0229,-0.15059 0,-0.2204 -0.36196,-1.10393 -1.01115,-1.69167 -1.67661,-2.58963 -0.76347,-1.03018 -1.07927,-2.16846 -1.55855,-3.32165 -0.17106,-0.41161 -0.37828,-0.80822 -0.48802,-1.24365 -0.13758,-0.54587 -0.12578,-1.25598 -0.43293,-1.74741 -0.31736,-0.50775 -0.85808,-1.02966 -1.27517,-1.44043 z"
       id="path1669-6" />
    <path
       style="fill:none;stroke:#16ff00;stroke-width:1.065"
       d="m 137.8296,106.53933 c -1.14964,1.43395 -1.65108,3.23121 -2.46376,4.85653 -0.76208,1.52413 -1.2081,3.09274 -1.58215,4.73848 -0.0569,0.25021 -0.36209,0.59488 -0.36209,0.82648 0,0.19678 0.37002,0.16018 0.56674,0.16529 0.24124,0.006 0.70834,-0.19232 0.86586,-0.23614 0.59613,-0.16584 1.19222,-0.20191 1.80256,-0.24401 0.45852,-0.0316 0.8934,-0.11167 1.35388,-0.063 0.33492,0.0354 0.63305,0.16247 0.97605,0.15742 0.27055,-0.004 0.52108,-0.1784 0.79502,-0.14956 1.14423,0.12047 2.3546,0.51164 3.47917,0.51164 0.0735,0 0.0229,-0.15059 0,-0.2204 -0.36196,-1.10393 -1.01115,-1.69167 -1.67662,-2.58963 -0.76346,-1.03018 -1.07927,-2.16846 -1.55854,-3.32165 -0.17106,-0.41161 -0.37828,-0.80822 -0.48803,-1.24365 -0.13757,-0.54587 -0.12577,-1.25598 -0.43293,-1.74741 -0.31735,-0.50775 -0.85807,-1.02966 -1.27516,-1.44043 z"
       id="path1669-3-7" />
    <path
       style="fill:none;stroke:#16ff00;stroke-width:1.065"
       d="m 56.627842,137.45765 c -0.063,-1.69396 0.211347,-3.38352 0.224759,-5.07303 0.008,-1.00745 -0.09106,-2.02178 -0.117732,-3.02886 -0.08081,-3.0505 -0.07862,-6.15429 -0.524444,-9.17212 -0.202258,-1.36912 -0.321082,-2.97395 -0.321082,-4.35597 0,-0.53687 0.03895,-1.02771 0.128436,-1.55186 0.02434,-0.1426 0.145167,-0.96041 0.07492,-0.93114 -0.377161,0.15714 -1.946989,4.17447 -2.065658,4.67705 -0.08807,0.373 0.0742,1.48141 -0.278273,1.7017 -0.0631,0.0394 -0.01593,-0.093 0.117732,-0.56724 0.07138,-0.25328 0.141973,-0.50679 0.214056,-0.75987 0.0691,-0.24261 1.285338,-4.15067 1.316453,-4.17401 0.128471,-0.0964 0.321148,-0.005 0.481634,-0.0107 1.426591,-0.0501 1.822328,0.47874 2.804152,1.33783 0.278699,0.24386 0.631029,0.37361 0.920448,0.59934 0.610847,0.47644 -0.199138,-0.0377 0.588661,0.66358 0.484272,0.4311 1.205513,0.35204 1.573329,0.8669"
       id="path2061" />
    <path
       style="fill:none;stroke:#16ff00;stroke-width:1.065"
       d="m 56.724175,102.98457 c 0.49708,-1.93184 0.35007,-3.942533 0.524433,-5.918561 0.123883,-1.403969 0.32598,-2.810727 0.406709,-4.216812 0.09154,-1.594385 0.08638,-3.171198 0.224761,-4.762667 0.137414,-1.580327 -0.07251,-3.153645 -0.139133,-4.730541 -0.02151,-0.509489 0.0585,-0.972764 0.09632,-1.476957 0.0099,-0.13168 0.09302,-0.477724 -0.01072,-0.396004 -1.165992,0.918617 -1.911096,3.422012 -2.32252,4.709152 -0.03274,0.102425 -0.132136,0.623448 -0.171247,0.8134 -0.0088,0.04251 -0.03303,0.17023 -0.0214,0.128418 0.33901,-1.220417 0.815951,-3.559926 1.519814,-4.420174 0.365294,-0.446455 0.784921,-0.27759 1.241531,-0.460213 0.01717,-0.0069 0.403423,-0.227198 0.417417,-0.171239 0.439015,1.755659 1.777854,3.110818 2.77204,4.602126"
       id="path2063" />
    <path
       style="fill:none;stroke:#16ff00;stroke-width:1.065"
       d="m 68.893349,113.99753 c -0.08205,0.30324 -0.185068,0.60158 -0.246168,0.90973 -0.120568,0.60807 -0.04131,1.31386 -0.117724,1.93717 -0.208767,1.703 -0.448718,3.45288 -0.513747,5.16935 -0.04198,1.10811 0.07073,2.21852 0.03211,3.32851 -0.07818,2.24737 -0.246169,4.46959 -0.246169,6.72124 0,1.07628 0.0163,2.14697 0.08563,3.22149 0.02373,0.36767 0.02098,0.73201 0.01072,1.10235 -0.0024,0.0894 -0.0088,0.35615 -0.02141,0.26757 -0.221782,-1.55248 -0.674962,-3.01762 -0.781306,-4.60212 -0.0065,-0.0971 0.01529,-0.69862 -0.192654,-0.80269 -0.05789,-0.029 0.07515,0.51435 0.181948,1.18798 0.121738,0.76783 0.524206,3.45131 0.941851,3.93857 0.03024,0.0353 0.639678,-0.61993 0.909743,-1.11307 0.868506,-1.58593 1.363668,-3.35928 2.247609,-4.92319"
       id="path2067" />
    <path
       style="fill:none;stroke:#16ff00;stroke-width:1.065"
       d="m 66.881206,81.739901 c -0.0024,2.762851 -0.132067,5.605312 0.128437,8.369419 0.07272,0.771549 0.330028,1.514496 0.406709,2.290355 0.221861,2.24477 0.273823,4.517895 0.7385,6.731942 0.06009,0.2863 0.670345,4.047613 0.524441,4.120503 -0.115784,0.0578 -0.653135,-0.41412 -0.684982,-0.4495 -0.855335,-0.95036 -0.927759,-2.49705 -1.455598,-3.638899 -0.425598,-0.920678 -0.02355,0.06011 -0.288978,-0.567221 -0.01418,-0.03351 -0.0214,-0.14341 -0.0214,-0.10703 0,0.558364 0.420438,1.10372 0.63147,1.59468 0.07266,0.16904 1.334876,3.91716 1.412777,3.91716 0.07355,0 0.0031,-0.16045 0.05352,-0.21406 0.0881,-0.0938 0.185515,-0.17838 0.278273,-0.26756 0.174813,-0.18551 0.352197,-0.36863 0.524444,-0.55653 0.745026,-0.81274 1.117396,-1.68835 1.62684,-2.67565 0.460521,-0.892487 1.006504,-1.734683 1.455587,-2.63285"
       id="path2071" />
    <path
       style="fill:none;stroke:#16ff00;stroke-width:1.065"
       d="m 140.17681,133.78665 c -1.17833,-3.02755 -0.8222,-6.34259 -0.77061,-9.51462 0.028,-1.72181 -0.20046,-3.44763 -0.26757,-5.12654 -0.0292,-0.73015 0.0232,-1.49774 -0.0642,-2.22615 -0.006,-0.0533 -0.52729,0.97395 -0.55654,1.04886 -0.36974,0.94685 -0.58311,1.93567 -0.85624,2.91112 -0.0508,0.18142 -0.23735,0.71518 -0.18194,0.53511 0.25804,-0.83866 0.89953,-4.76487 2.17268,-4.62351 0.24257,0.0269 0.25708,0.42783 0.44952,0.57794 0.30419,0.23727 0.74326,0.29551 1.05958,0.53513 0.95623,0.72439 1.56879,1.74274 2.44026,2.54722"
       id="path2073" />
    <path
       style="fill:none;stroke:#16ff00;stroke-width:1.065"
       d="m 137.89709,106.76258 c -0.0707,-1.83695 0.009,-3.67392 -0.0107,-5.51184 -0.0363,-3.45773 0.18069,-6.927846 0.0856,-10.381534 -0.0334,-1.21225 -0.0428,-2.425999 -0.0428,-3.638876 0,-0.273102 -0.0642,-0.530084 -0.0642,-0.791993 0,-0.128627 0.027,-0.513797 0.0214,-0.385291 -0.0694,1.595948 -0.75798,3.283706 -1.27365,4.773361 -0.25054,0.723768 -0.5335,1.381694 -0.59936,1.337823 -0.0479,-0.03189 -0.003,-0.119004 0.0214,-0.171254 0.15291,-0.331838 0.33137,-0.651589 0.48162,-0.984639 0.20056,-0.44454 0.32666,-1.089517 0.42812,-1.509059 0.10769,-0.445275 0.34362,-2.867438 0.79202,-2.664955 0.42184,0.190495 0.69788,0.686425 1.04888,0.973945 2.13041,1.745117 2.59365,1.790874 3.81022,4.30245"
       id="path2075" />
    <path
       style="fill:none;stroke:#16ff00;stroke-width:1.065"
       d="m 147.19566,84.800842 c 0.0692,0.630605 -0.15597,1.25662 -0.14983,1.883656 0.01,1.023024 0.23854,2.037823 0.28898,3.060938 0.11235,2.278877 0.11646,4.555688 0.35318,6.828255 0.17844,1.71295 0.52102,3.354033 0.56727,5.083749 0.0271,1.01498 0.0705,2.01554 0.22475,3.01814 0.0419,0.27248 0.0717,0.55004 0.10703,0.82409 0.008,0.0638 0.0481,0.24498 0.0107,0.19265 -0.25825,-0.36157 -0.32055,-0.92093 -0.51375,-1.32713 -0.34053,-0.71596 -0.75588,-1.39782 -1.19871,-2.05489 -0.1904,-0.28251 -0.20364,-0.27773 -0.40672,-0.66358 -0.0386,-0.0734 -0.0484,-0.28343 -0.10703,-0.22475 -0.1605,0.16058 1.11188,2.48058 1.18802,2.63285 0.26397,0.52792 0.57234,1.03197 0.75991,1.59468 0.13079,0.39236 0.14604,0.73616 0.23546,0.70637 0.0419,-0.0139 0.0111,-0.0896 0.0321,-0.12843 0.17683,-0.32746 0.36888,-0.64654 0.54585,-0.97393 0.87068,-1.61068 1.55227,-3.32244 2.34393,-4.95531"
       id="path2077" />
    <path
       style="fill:none;stroke:#16ff00;stroke-width:1.065"
       d="m 150.27811,116.76951 c -0.33795,4.71094 -0.43334,9.46074 -0.87765,14.17025 -0.11243,1.19164 -0.20252,3.65658 -0.22475,3.66029 -0.0574,0.01 -1.09895,-4.25548 -1.19873,-4.61282 -0.57043,-2.04283 -0.0363,-0.10951 -0.32109,-1.28431 -0.003,-0.0107 -0.2617,-0.81929 -0.38531,-0.69568 -0.15751,0.15751 0.46088,4.00056 0.57796,4.37738 0.13258,0.42674 0.36178,0.96938 0.55654,1.38062 0.14595,0.30815 0.52911,-0.0916 0.75991,-0.21405 1.70755,-0.90572 3.05401,-2.3726 4.10991,-3.95997 0.41878,-0.62957 0.67636,-1.21198 1.23083,-1.7338"
       id="path2079" />
    <path
       style="fill:none;stroke:#16ff00;stroke-width:1.065"
       d="m 130.14596,61.041057 c -0.23189,-0.07492 -0.45492,-0.187021 -0.69568,-0.224749 -0.53927,-0.08451 -1.09171,-0.005 -1.63754,-0.01071 -1.49518,-0.01574 -2.98936,-0.0077 -4.48451,-0.04281 -3.50689,-0.08227 -7.0076,-0.568338 -10.52094,-0.374596 -2.05011,0.113053 -4.1526,0.391896 -6.21838,0.44951 -1.06887,0.02981 -2.13427,-0.04032 -3.20016,-0.01071 -0.68276,0.01897 -1.40338,0.256864 -2.06566,0.256864 -0.0329,0 0.0443,-0.05222 0.0749,-0.06421 0.37398,-0.146335 0.62505,-0.232219 1.00606,-0.406701 1.16261,-0.532401 2.32745,-1.037887 3.49985,-1.551879 0.64355,-0.28214 0.76432,-0.362472 1.34857,-0.642155 0.14541,-0.06961 0.29216,-0.136399 0.43881,-0.20335 0.029,-0.01325 0.1074,-0.06614 0.0856,-0.04281 -1.17803,1.26219 -3.33963,1.648546 -4.93403,2.076302 -0.69697,0.186986 -1.57614,0.405967 -1.4877,0.610051 0.24542,0.566348 1.32856,1.149208 1.78738,1.541174 0.34453,0.294333 0.66883,0.615085 1.03817,0.87762 0.52122,0.370494 1.0601,0.720552 1.62684,1.016742 0.50231,0.262509 1.35267,0.30727 1.8088,0.706374"
       id="path2083" />
    <path
       style="fill:none;stroke:#16ff00;stroke-width:1.065"
       d="m 91.219576,61.597595 c -0.725176,0.176639 -0.762826,0.229828 -1.434188,0.256863 -0.983612,0.03961 -1.971331,-0.03247 -2.954001,0.04281 -3.313478,0.253837 -6.624778,0.836178 -9.953681,0.920429 -1.007586,0.0255 -2.003972,-0.120198 -3.007516,-0.181951 -0.45657,-0.02809 -2.236332,0.27064 -2.65431,-0.04282 -0.166248,-0.124678 1.240171,-0.760879 1.359265,-0.813392 1.029282,-0.453845 2.114682,-0.698761 3.157352,-1.102369 0.253019,-0.09794 0.488334,-0.277288 0.749202,-0.342482 0.09287,-0.02321 -0.170899,0.08633 -0.256873,0.128437 -0.3239,0.15864 -0.646732,0.281942 -0.963258,0.449509 -1.063731,0.563133 -2.161826,1.10314 -3.253676,1.605383 -0.537263,0.247137 -1.236049,0.56868 -1.166617,0.620746 0.163317,0.122472 0.440216,-0.05972 0.610071,0.05351 1.67812,1.118747 3.454111,2.584285 5.415655,3.178682"
       id="path2085" />
    <path
       style="fill:none;stroke:#16ff00;stroke-width:1.065"
       d="m 72.136328,74.119636 c 0.503074,-0.06331 1.011426,-0.310912 1.530512,-0.321082 1.15874,-0.0227 2.442665,0.293381 3.638976,0.310388 3.559765,0.05061 7.1106,0.107027 10.67078,0.107027 0.705932,0 1.406261,-0.142195 2.108465,-0.128437 0.438253,0.0086 0.875382,0.151504 1.262941,0.107028 0.187049,-0.02147 0.519625,0.08829 0.556559,-0.09633 0.042,-0.209957 -0.418481,-0.0958 -0.631471,-0.117722 -1.057473,-0.108863 -2.110962,-0.336531 -3.082441,-0.781297 -0.47748,-0.218602 -0.823555,-0.574448 -1.30575,-0.770583 -0.116226,-0.04728 -0.489366,-0.09631 -0.36389,-0.09631 0.534808,0 1.351743,0.35851 1.851592,0.481603 0.224459,0.05528 3.143697,1.062429 2.879079,1.32713 -0.275659,0.275743 -0.812559,0.286891 -1.091695,0.642145 -0.167663,0.213382 -0.198837,0.495441 -0.363902,0.717089 -0.477994,0.641838 -1.041924,1.234046 -1.530509,1.862247"
       id="path2091" />
    <path
       style="fill:none;stroke:#16ff00;stroke-width:1.065"
       d="m 103.00345,75.361148 c 0.91471,-0.230398 1.88046,-0.321682 2.82557,-0.353187 4.9628,-0.165434 9.91344,-0.160541 14.877,-0.160541 1.03655,0 2.07843,-0.06353 3.11455,-0.02141 1.39511,0.05671 2.81733,0.149846 4.20622,0.149846 0.0881,0 -0.13826,-0.122332 -0.22476,-0.139152 -0.45986,-0.08942 -0.91205,-0.213435 -1.35926,-0.353186 -0.9809,-0.306529 -1.94167,-0.684191 -2.82557,-1.209388 -0.26196,-0.155657 -0.53501,-0.252446 -0.71708,-0.470909 -0.0291,-0.03488 -0.13526,-0.119699 -0.0963,-0.09633 1.03195,0.619283 2.1272,1.388043 3.28578,1.744525 0.31527,0.097 1.5531,0.259241 1.59473,0.342492 0.19604,0.392073 -2.59782,2.07215 -3.09313,2.450899"
       id="path2093" />
    <path
       style="fill:none;stroke:#16ff00;stroke-width:1.065"
       d="m 128.13383,81.236867 c -5.94873,0.400127 -11.85553,1.868773 -17.52063,3.69239 -2.69169,0.866466 -5.36414,1.735 -7.94154,2.900418 -2.10382,0.951286 -4.982419,1.731293 -6.89266,3.060941 -0.751404,0.523023 -1.451576,1.174004 -2.161979,1.755219 -0.508074,0.415682 -1.11206,0.708274 -1.637549,1.102379 -0.07547,0.0566 -0.792102,0.754457 -0.888333,0.706374 -0.575559,-0.287576 2.143014,-3.256619 2.32252,-3.48905 0.233638,-0.302519 0.514424,-0.513845 0.770612,-0.79199 0.08179,-0.08879 0.268627,-0.401223 0.203351,-0.299673 -0.571783,0.889505 -1.298892,1.667214 -1.862296,2.56862 -0.272275,0.435621 -0.515525,0.838658 -0.877641,1.209387 -0.139354,0.142668 -0.594776,0.372438 -0.40671,0.438806 0.333798,0.117792 1.936718,0.377513 2.14058,0.38531 1.459677,0.05584 2.956901,-0.5441 4.270446,0.331777"
       id="path2095" />
    <path
       style="fill:none;stroke:#16ff00;stroke-width:1.065"
       d="m 83.66333,103.1558 c -1.737051,1.26575 -2.473347,3.28811 -3.371408,5.16935 -0.843132,1.76617 -1.799741,3.5492 -2.42955,5.40483 -1.311003,3.86266 -1.569321,7.91406 -2.065658,11.9227 -0.200051,1.6157 -0.572169,3.41441 -0.588661,5.03021 -0.0037,0.36644 -0.197561,4.99423 -0.363902,5.10514 -0.356804,0.2379 -0.270582,-0.81476 -0.374595,-1.2308 -0.325678,-1.30266 -0.996264,-2.48281 -1.34857,-3.77801 -0.186598,-0.68599 -0.02405,-0.23569 -0.224759,-0.92042 -0.03675,-0.12537 -0.266673,-0.44483 -0.22476,-0.32109 0.267798,0.79061 0.430672,1.5863 0.67428,2.38669 0.275015,0.90358 0.43358,1.92667 0.856239,2.77196 0.135194,0.27038 0.44328,0.45514 0.67428,0.62076 0.122359,0.0877 0.213333,0.26757 0.363892,0.26757 0.776335,0 2.557351,-3.4867 2.77205,-3.82083 0.520594,-0.81017 1.143479,-1.487 1.873004,-2.10843"
       id="path2097" />
    <path
       style="fill:none;stroke:#16ff00;stroke-width:1.065"
       d="m 77.915886,137.93925 c 0.296112,-0.21762 0.567098,-0.4744 0.888334,-0.65286 0.684879,-0.38047 1.835192,-0.45374 2.547292,-0.65286 1.116115,-0.31208 2.275998,-0.75879 3.339303,-1.22008 0.926026,-0.40173 1.731926,-1.04442 2.611501,-1.53049 1.289685,-0.7127 2.57224,-1.44089 3.863745,-2.1512 1.700223,-0.93511 3.543641,-1.58004 5.255114,-2.48301 1.013963,-0.53496 1.869165,-1.22671 2.825565,-1.85155 1.03558,-0.67657 2.25323,-1.18425 3.20016,-1.97999 0.68377,-0.57459 1.26366,-1.25568 1.96933,-1.80873 1.47127,-1.15309 3.23525,-2.19549 4.4738,-3.61749 0.0675,-0.0776 0.62077,-0.50761 0.62077,-0.59934 0,-0.0982 -0.61953,0.20557 -1.25224,0.42811 -1.16738,0.41058 -2.34514,0.89064 -3.55335,1.16658 -0.42826,0.0978 -0.87904,0.10652 -1.31646,0.11773 -0.0832,0.002 -0.29299,0.10212 -0.21406,0.12843 0.18588,0.062 0.39075,-0.0492 0.57796,-0.10702 1.10555,-0.34122 2.20758,-0.82004 3.25368,-1.30572 0.20117,-0.0934 0.40098,-0.18979 0.59936,-0.28898 0.0903,-0.0452 0.17071,-0.21319 0.25687,-0.16054 0.257,0.15705 0.50259,0.43837 0.7171,0.65286 0.0347,0.0347 -0.14458,0.73904 -0.16055,0.83481 -0.21146,1.26865 0.10197,2.61987 0.0963,3.89575 -0.001,0.30977 -0.12844,1.23018 -0.12844,0.92041"
       id="path2101" />
    <path
       style="fill:none;stroke:#16ff00;stroke-width:1.065"
       d="m 116.9172,112.5955 c 0.81518,-2.07808 2.05372,-3.90596 3.21086,-5.7901 0.43023,-0.70052 0.46287,-0.97696 0.78132,-1.73383 0.40195,-0.95533 0.899,-1.82326 1.45559,-2.69706 0.9781,-1.53556 2.12117,-3.034076 2.87908,-4.69844 0.42811,-0.940147 0.52531,-1.97307 0.97396,-2.911113 0.51331,-1.073253 1.13676,-2.10345 1.53051,-3.232176 0.29941,-0.858282 0.60816,-1.725163 0.88835,-2.59003 0.11752,-0.362773 0.17659,-0.825598 0.34249,-1.166588 0.0933,-0.191852 0.18481,-0.11054 0.23546,-0.256876 0.0526,-0.151942 0.42981,-0.637976 0.31038,-0.781275 -0.43571,-0.52279 -3.7522,1.975028 -4.22764,2.279642 -0.26595,0.170395 -2.4113,1.192393 -2.36534,1.284309 0.12779,0.255582 2.04322,-0.873868 2.24761,-1.016741 0.71899,-0.502576 3.64071,-3.427777 4.49522,-1.840838 0.30848,0.572907 0.26415,1.622205 0.34249,2.236845 0.1271,0.997236 0.32598,2.000123 0.35318,3.007426"
       id="path2103" />
    <path
       style="fill:none;stroke:#16ff00;stroke-width:1.065"
       d="m 134.95157,142.41294 c -6.19885,0.81829 -12.46599,0.48914 -18.69795,0.61006 -0.5014,0.01 -1.00739,0.0732 -1.50911,0.0535 -0.96735,-0.0379 -1.83595,-0.30443 -2.81486,-0.14985 -0.51157,0.0808 -1.00339,-0.001 -1.5198,0.0321 -0.1655,0.0108 -0.60184,0.0587 -0.47093,0.16055 0.1961,0.15251 0.49932,-0.063 0.72779,-0.16055 0.43983,-0.18778 0.84152,-0.58207 1.25224,-0.82409 0.59137,-0.34848 1.46628,-0.76712 2.03355,-1.02746 0.74026,-0.33972 1.50459,-0.64333 2.25832,-0.95253 0.0861,-0.0353 0.32734,-0.13531 0.23545,-0.14983 -0.57409,-0.0907 -4.57459,2.02598 -4.8484,2.27966 -0.0252,0.0233 -0.97527,0.94306 -0.92045,1.05955 0.0905,0.19236 0.66472,0.12964 0.81342,0.16054 0.61981,0.12878 1.12256,0.47269 1.68035,0.74919 1.22823,0.60883 2.49057,1.35843 3.82093,1.69101"
       id="path2146" />
    <path
       style="fill:none;stroke:#16ff00;stroke-width:1.065"
       d="m 100.46686,144.20028 c -6.465389,0.36632 -12.887827,-0.65788 -19.340107,-0.73847 -1.032234,-0.0129 -2.062035,0.0616 -3.093135,0.0856 -0.354153,0.008 -0.657143,-0.0474 -1.006075,-0.0107 -0.153184,0.0161 -0.591373,0.16705 -0.449522,0.10703 1.657752,-0.70143 3.217248,-1.60931 4.83771,-2.38668 0.455401,-0.21846 0.907894,-0.37593 1.380673,-0.54583 0.159607,-0.0574 0.630306,-0.25061 0.470918,-0.19264 -1.706663,0.62071 -3.307244,1.56133 -4.848402,2.50441 -0.227377,0.13914 -0.917413,0.33479 -0.802716,0.71707 0.217773,0.72582 3.025616,1.86933 3.746013,2.21543 1.122349,0.53921 2.468112,1.54396 3.7353,1.5947"
       id="path2148" />
    <path
       style="fill:none;stroke:#16ff00;stroke-width:1.065"
       d="m 75.860934,155.90893 c 2.427708,0.6019 4.949626,0.86238 7.449209,0.74919 1.33886,-0.0606 2.59901,-0.22569 3.949364,-0.18195 2.315905,0.075 4.63597,0.23077 6.956869,0.14983 1.035494,-0.0361 2.075519,-0.18133 3.114543,-0.23545 1.057163,-0.0551 2.24111,-0.10081 3.264381,-0.3639 0.14915,-0.0383 0.81134,-0.0687 0.82412,-0.10701 0.0953,-0.28576 -3.165913,-1.45343 -3.660379,-1.5947 -0.345829,-0.0988 -1.002398,-0.23649 -1.327161,-0.28898 -0.155326,-0.0251 -0.601845,-0.11937 -0.470929,-0.0321 0.76649,0.51097 1.613334,0.99905 2.525882,1.17728 0.455906,0.0891 1.829007,0.0665 2.172687,0.53514 0.41513,0.56607 -1.265632,2.32322 -1.509112,2.65424 -0.437145,0.5943 -0.75552,1.28547 -1.241531,1.84086"
       id="path2150" />
    <path
       style="fill:none;stroke:#16ff00;stroke-width:1.065"
       d="m 111.97247,156.6046 c 3.55704,0.45549 7.0614,-0.73823 10.58515,-1.01676 2.47908,-0.19595 4.94865,-0.10021 7.4278,-0.35318 1.18557,-0.12098 2.375,-0.34823 3.55336,-0.48161 0.0757,-0.009 0.90975,-0.0528 0.90975,-0.24616 0,-0.17427 -0.74371,-0.19113 -1.25224,-0.23546 -1.45654,-0.12697 -3.1406,-0.0291 -4.57013,-0.26757 -0.11457,-0.0191 0.23159,0.0297 0.34249,0.0642 0.29526,0.092 0.53434,0.19064 0.83482,0.25685 0.98515,0.21709 1.98144,0.39045 2.97541,0.56724 0.33838,0.0602 0.6771,0.11877 1.01678,0.17124 0.14846,0.0229 0.44951,0.18233 0.44951,0.0321 0,-0.0418 -0.14711,0.0213 -0.48163,0.32109 -0.21093,0.18901 -0.7492,0.68096 -0.95255,0.88832 -0.65738,0.67032 -1.49799,1.38633 -2.12988,2.10841"
       id="path2152" />
    <path
       style="fill:none;stroke:#16ff00;stroke-width:1.065"
       d="m 71.82594,79.17126 c 0.310386,0.01071 0.620689,0.04015 0.931156,0.03212 0.421653,-0.0109 0.831321,-0.154717 1.252236,-0.18195 2.085711,-0.134947 3.910253,0.396862 5.918697,0.866915 2.518408,0.589403 5.132486,0.84676 7.60975,1.616089 2.033405,0.631483 4.533771,1.935689 6.485951,2.921807 0.908897,0.459115 1.977615,0.780438 2.804155,1.391338 0.849447,0.627827 1.524024,1.441891 2.322523,2.129816 0.947012,0.815869 2.518832,1.806855 3.285792,2.697057 0.40709,0.472511 0.43747,1.16129 0.89904,1.594699 0.64205,0.602887 1.5135,0.789654 2.12987,1.391338 0.21265,0.207573 0.92025,1.05954 1.24153,1.05954 0.0298,0 -0.66151,-0.450012 -1.26294,-1.434137 -0.33301,-0.544912 -0.67091,-1.106625 -0.95255,-1.680316 -0.0485,-0.09886 -0.0899,-0.398185 -0.13914,-0.299673 -0.0645,0.129075 0.032,0.287449 0.0642,0.42811 0.42295,1.847609 2.75741,3.258391 -0.50304,3.018141 -0.69156,-0.05096 -1.37267,-0.07399 -2.05495,-0.192667"
       id="path2156" />
    <path
       style="fill:none;stroke:#16ff00;stroke-width:1.065"
       d="m 115.25825,102.3103 c 0.15341,0.22832 0.28388,0.47385 0.46023,0.68496 0.24613,0.29465 0.62117,0.45314 0.90974,0.70637 1.31217,1.15147 2.61569,2.65106 3.60687,4.06699 1.34845,1.92632 1.76598,4.32161 3.08244,6.25032 0.62195,0.9112 1.44296,1.72038 1.96933,2.69706 0.7291,1.35287 1.15225,2.83872 1.90511,4.1847 0.86161,1.54041 2.03155,2.84299 2.9433,4.34528 0.72678,1.1975 1.19791,3.13548 1.69105,4.48438 0.36547,0.99966 0.71559,2.04333 1.34857,2.91111 0.18821,0.25803 1.09136,1.23827 1.1238,1.56257 0.002,0.0232 -0.3773,-0.1491 -0.94186,-0.4067 -1.06232,-0.48472 -1.95014,-1.02689 -2.83626,-1.80873 -0.1252,-0.11047 -1.05131,-1.14264 -1.17732,-1.01674 -0.0269,0.0269 1.51129,1.34283 1.64825,1.44485 0.0861,0.0641 2.99327,2.04012 3.26438,2.00138 0.0883,-0.0126 0.0519,-0.17068 0.0749,-0.25685 0.13277,-0.49791 0.36936,-0.0499 0.28898,-1.04887 -0.0598,-0.74372 -0.12233,-1.40828 -0.0321,-2.16192 0.10936,-0.9135 0.396,-1.7523 0.396,-2.68636"
       id="path2204" />
    <path
       style="fill:none;stroke:#16ff00;stroke-width:1.065"
       d="m 133.79566,139.73729 c -2.05148,-0.72786 -4.20476,-1.08705 -6.2826,-1.72311 -0.50388,-0.15425 -0.93831,-0.42503 -1.42349,-0.61004 -0.81897,-0.31231 -1.73052,-0.57394 -2.56869,-0.81341 -1.53242,-0.43782 -3.11071,-0.64645 -4.65576,-1.01676 -0.86333,-0.20691 -1.65893,-0.55763 -2.49376,-0.8455 -0.92156,-0.31778 -1.87161,-0.48292 -2.79345,-0.81338 -0.80245,-0.28766 -1.52434,-0.72963 -2.31183,-1.04887 -1.48228,-0.60089 0.31808,0.25529 -2.37605,-0.90971 -0.17796,-0.077 -1.4425,-0.83194 -1.4877,-0.85622 -0.88925,-0.4778 -1.88972,-0.65756 -2.80415,-1.07026 -0.7506,-0.33876 -1.459,-0.75407 -2.2155,-1.08095 -1.0084,-0.43573 -2.25666,-0.92984 -3.125245,-1.60539 -0.79697,-0.61986 -1.509104,-1.26494 -2.343931,-1.85155 -0.449061,-0.31555 -0.858322,-0.68218 -1.30575,-0.99536 -0.06489,-0.0454 -0.605282,-0.46497 -0.642176,-0.42809 -0.132948,0.13291 0.09768,2.67488 0.107029,2.75055 0.03984,0.32272 0.06374,0.53386 0.171247,0.82412 0.02003,0.0541 0.104992,0.20128 0.06422,0.16054 -0.338231,-0.33791 -0.296612,-1.47993 -0.342493,-1.91578 -0.199811,-1.89813 0.207608,-1.88923 1.658948,-1.92646 0.981131,-0.0252 1.958367,-10e-4 2.932591,0.0963"
       id="path2206" />
    <path
       style="fill:none;stroke:#16ff00;stroke-width:1.065"
       d="m 87.976596,117.86117 c -0.281842,-0.20334 -0.572447,-0.39506 -0.845526,-0.61003 -0.782484,-0.61599 -1.878407,-2.27698 -2.525882,-3.08236 -1.134464,-1.41111 -2.288074,-2.81767 -3.285789,-4.33455 -0.43389,-0.65967 -0.771522,-1.37969 -1.198724,-2.0442 -0.680532,-1.05857 -1.631669,-1.88496 -2.333225,-2.93252 -0.826027,-1.23342 -1.333132,-2.82944 -1.937221,-4.18471 -0.921824,-2.068109 -1.918687,-3.903698 -2.42956,-6.121899 -0.653278,-2.836531 -1.500558,-5.615312 -1.851602,-8.519263 -0.09719,-0.803963 -0.09568,-1.650423 -0.139131,-2.461593 -0.01585,-0.295868 0.01963,-0.605742 -0.03212,-0.89902 -0.02019,-0.114387 -0.01508,-0.447746 -0.06421,-0.342492 -0.57645,1.235181 -0.860002,2.834111 -1.444892,4.174013 -0.18555,0.425067 -0.39774,1.156126 -0.396007,1.155894 0.260014,-0.03467 0.511421,-0.519475 0.63147,-0.67427 0.774785,-0.999027 0.900475,-1.782969 1.070285,-3.039549 0.03678,-0.272169 0.165235,-0.930098 0.610063,-0.834792 0.372271,0.07976 1.500544,1.963227 1.765982,2.301052 0.492512,0.626822 1.485064,0.949105 2.140572,1.337826"
       id="path2208" />
  </g>
</svg>
